<?xml version="1.0" encoding="UTF-8" standalone="no"?>
<svg
   xmlns:dc="http://purl.org/dc/elements/1.1/"
   xmlns:cc="http://creativecommons.org/ns#"
   xmlns:rdf="http://www.w3.org/1999/02/22-rdf-syntax-ns#"
   xmlns:svg="http://www.w3.org/2000/svg"
   xmlns="http://www.w3.org/2000/svg"
   viewBox="0 0 6762.6665 6762.6665"
   height="6762.6665"
   width="6762.6665"
   xml:space="preserve"
   id="svg2"
   version="1.1"><metadata
     id="metadata8"><rdf:RDF><cc:Work
         rdf:about=""><dc:format>image/svg+xml</dc:format><dc:type
           rdf:resource="http://purl.org/dc/dcmitype/StillImage" /></cc:Work></rdf:RDF></metadata><defs
     id="defs6"><clipPath
       id="clipPath22"
       clipPathUnits="userSpaceOnUse"><path
         id="path20"
         d="m 3405.92,12960 c 4303.58,-447.5 5413.52,-201.9 8222.38,-23.8 -1068.5,-56.4 -1517.1,-893 -2190.04,-1640.8 -1257.83,-1397.58 -2859.21,-1544.48 -4063.23,17.2 -658.42,853.9 -881.73,1359.9 -1969.11,1647.4 z" /></clipPath><linearGradient
       id="linearGradient30"
       spreadMethod="pad"
       gradientTransform="matrix(-1.4027882e-4,-3209.0588,3209.0588,-1.4027882e-4,7517.1227,12959.999)"
       gradientUnits="userSpaceOnUse"
       y2="0"
       x2="1"
       y1="0"
       x1="0"><stop
         id="stop24"
         offset="0"
         style="stop-opacity:1;stop-color:#a7a9ad" /><stop
         id="stop26"
         offset="0.588235"
         style="stop-opacity:1;stop-color:#c1c3c4" /><stop
         id="stop28"
         offset="1"
         style="stop-opacity:1;stop-color:#dfe0e0" /></linearGradient><clipPath
       id="clipPath40"
       clipPathUnits="userSpaceOnUse"><path
         id="path38"
         d="m 3405.92,12960 c 6268.47,-26.6 6311.16,-9.8 8222.38,-22 -1068.5,-52.2 -1517.1,-827 -2190.04,-1519.5 -1257.83,-1294.3 -2859.21,-1430.29 -4063.23,15.9 -658.42,790.8 -881.73,1259.3 -1969.11,1525.6 z" /></clipPath><linearGradient
       id="linearGradient46"
       spreadMethod="pad"
       gradientTransform="matrix(-6.7536299e-5,-1545.3318,1545.3318,-6.7536299e-5,7517.1227,12246.746)"
       gradientUnits="userSpaceOnUse"
       y2="0"
       x2="1"
       y1="0"
       x1="0"><stop
         id="stop42"
         offset="0"
         style="stop-opacity:1;stop-color:#ffffff" /><stop
         id="stop44"
         offset="1"
         style="stop-opacity:1;stop-color:#c1c3c4" /></linearGradient><clipPath
       id="clipPath62"
       clipPathUnits="userSpaceOnUse"><path
         id="path60"
         d="m 9322.34,7265.06 c 14.31,117.29 134.86,425.7 151.21,585.94 4.36,42.77 3.12,76.99 -13.19,90.21 -28.55,23.11 -56.58,16.83 -81.51,-1.74 -111.58,-83.04 -200.96,-384.77 -235.99,-532.62 43.21,-65.89 119.05,-111.39 179.48,-141.79 z" /></clipPath><linearGradient
       id="linearGradient68"
       spreadMethod="pad"
       gradientTransform="matrix(111.06612,495.16978,495.16978,-111.06612,9324.8106,7693.0063)"
       gradientUnits="userSpaceOnUse"
       y2="0"
       x2="1"
       y1="0"
       x1="0"><stop
         id="stop64"
         offset="0"
         style="stop-opacity:1;stop-color:#050301" /><stop
         id="stop66"
         offset="1"
         style="stop-opacity:1;stop-color:#ffffff" /></linearGradient><clipPath
       id="clipPath80"
       clipPathUnits="userSpaceOnUse"><path
         id="path78"
         d="m 8230.91,2322.36 c -51.05,-17.39 -71.07,-90.48 -44.75,-163.22 26.32,-72.74 89,-117.63 140.05,-100.25 51.02,17.38 71.06,90.45 44.74,163.22 -26.32,72.74 -89.02,117.63 -140.04,100.25 z m -205.85,-52.56 c -53.8,-3.59 -92.1,-68.95 -85.5,-146.06 6.57,-77.08 55.5,-136.67 109.3,-133.08 53.8,3.56 92.07,68.95 85.5,146.04 -6.57,77.08 -55.54,136.66 -109.3,133.1 z m -214.53,14 c -49.2,4.57 -93.71,-44.92 -99.47,-110.51 -5.72,-65.61 29.51,-122.5 78.71,-127.07 49.19,-4.57 93.73,44.95 99.46,110.55 5.73,65.6 -29.5,122.46 -78.7,127.03 z m 223.72,473.02 c 125.97,134.32 311.2,5.49 355.27,-133.11 35.23,-110.81 -55.13,-220.77 -170.45,-203.28 -127.57,19.38 -62.47,63.58 -191.67,-40.52 -109.36,-88.13 -241.48,0.15 -255.57,72.6 -20.82,107.22 62.97,378.35 262.42,304.31 z m 379.54,-319.21 c -42.84,-21.77 -52.9,-86.73 -22.47,-145.11 30.42,-58.39 89.77,-88.09 132.61,-66.34 42.84,21.75 52.9,86.71 22.47,145.11 -30.42,58.39 -89.8,88.07 -132.61,66.34 z" /></clipPath><linearGradient
       id="linearGradient86"
       spreadMethod="pad"
       gradientTransform="matrix(65.737548,-666.69752,666.69752,65.737548,8083.9938,2770.0584)"
       gradientUnits="userSpaceOnUse"
       y2="0"
       x2="1"
       y1="0"
       x1="0"><stop
         id="stop82"
         offset="0"
         style="stop-opacity:1;stop-color:#f8a29d" /><stop
         id="stop84"
         offset="1"
         style="stop-opacity:1;stop-color:#86252b" /></linearGradient><clipPath
       id="clipPath98"
       clipPathUnits="userSpaceOnUse"><path
         id="path96"
         d="m 6561.56,2412.68 c 49.08,-22.38 61.75,-97.06 28.34,-166.86 -33.38,-69.76 -100.22,-108.23 -149.3,-85.84 -49.06,22.36 -61.75,97.04 -28.32,166.83 33.38,69.79 100.22,108.23 149.28,85.87 z m 199.63,-72.71 c 53.19,-8.91 84.8,-77.75 70.6,-153.82 -14.17,-76.04 -68.78,-130.5 -121.97,-121.59 -53.16,8.88 -84.78,77.75 -70.57,153.79 14.17,76.06 68.78,130.5 121.94,121.62 z m 214.87,-7.35 c 49.4,-0.34 88.8,-54 87.99,-119.83 -0.78,-65.86 -41.51,-118.96 -90.91,-118.61 -49.4,0.34 -88.8,54 -88.01,119.83 0.8,65.86 41.53,118.96 90.93,118.61 z m -175.71,492.86 c -112.05,146.15 -309.14,36.36 -366.72,-97.18 -46.05,-106.76 32.94,-225.17 149.42,-219.19 128.88,6.63 68.46,57.04 186.73,-59.35 100.07,-98.51 240.29,-23.77 261.49,46.92 31.36,104.61 -25.13,382.71 -230.92,328.8 z M 6391.02,2545.5 c 40.47,-25.89 44.03,-91.54 7.99,-146.61 -36.07,-55.1 -98.11,-78.76 -138.58,-52.87 -40.46,25.88 -44.02,91.54 -7.95,146.61 36.07,55.1 98.08,78.76 138.54,52.87 z" /></clipPath><linearGradient
       id="linearGradient104"
       spreadMethod="pad"
       gradientTransform="matrix(-222.75727,-1112.5123,1112.5123,-222.75727,6716.6368,2666.4256)"
       gradientUnits="userSpaceOnUse"
       y2="0"
       x2="1"
       y1="0"
       x1="0"><stop
         id="stop100"
         offset="0"
         style="stop-opacity:1;stop-color:#f8a29d" /><stop
         id="stop102"
         offset="1"
         style="stop-opacity:1;stop-color:#86252b" /></linearGradient><clipPath
       id="clipPath116"
       clipPathUnits="userSpaceOnUse"><path
         id="path114"
         d="m 7503.65,5961.19 c 445.14,0 806.01,-271.5 806.01,-606.41 0,-334.9 -360.87,-606.41 -806.01,-606.41 -445.13,0 -805.98,271.51 -805.98,606.41 0,334.91 360.85,606.41 805.98,606.41 z" /></clipPath><linearGradient
       id="linearGradient122"
       spreadMethod="pad"
       gradientTransform="matrix(9.2555099,-1189.333,-1189.333,-9.2555099,7505.4955,5117.2847)"
       gradientUnits="userSpaceOnUse"
       y2="0"
       x2="1"
       y1="0"
       x1="0"><stop
         id="stop118"
         offset="0"
         style="stop-opacity:1;stop-color:#050301" /><stop
         id="stop120"
         offset="1"
         style="stop-opacity:1;stop-color:#ffffff" /></linearGradient><clipPath
       id="clipPath134"
       clipPathUnits="userSpaceOnUse"><path
         id="path132"
         d="m 7660.39,10813.7 c 74.33,0 134.61,-50.5 134.61,-112.8 0,-62.3 -60.28,-112.8 -134.61,-112.8 -74.36,0 -134.64,50.5 -134.64,112.8 0,62.3 60.28,112.8 134.64,112.8 z" /></clipPath><linearGradient
       id="linearGradient140"
       spreadMethod="pad"
       gradientTransform="matrix(-69.416035,393.35628,393.35628,69.416035,7670.6195,10642.911)"
       gradientUnits="userSpaceOnUse"
       y2="0"
       x2="1"
       y1="0"
       x1="0"><stop
         id="stop136"
         offset="0"
         style="stop-opacity:1;stop-color:#050301" /><stop
         id="stop138"
         offset="1"
         style="stop-opacity:1;stop-color:#ffffff" /></linearGradient><clipPath
       id="clipPath150"
       clipPathUnits="userSpaceOnUse"><path
         id="path148"
         d="m 8557.19,10840.4 c 62.85,0 113.81,-54.7 113.81,-122.3 0,-67.6 -50.96,-122.3 -113.81,-122.3 -62.85,0 -113.81,54.7 -113.81,122.3 0,67.6 50.96,122.3 113.81,122.3 z" /></clipPath><linearGradient
       id="linearGradient156"
       spreadMethod="pad"
       gradientTransform="matrix(148.08816,222.13224,222.13224,-148.08816,8549.6616,10706.774)"
       gradientUnits="userSpaceOnUse"
       y2="0"
       x2="1"
       y1="0"
       x1="0"><stop
         id="stop152"
         offset="0"
         style="stop-opacity:1;stop-color:#050301" /><stop
         id="stop154"
         offset="1"
         style="stop-opacity:1;stop-color:#ffffff" /></linearGradient><clipPath
       id="clipPath166"
       clipPathUnits="userSpaceOnUse"><path
         id="path164"
         d="m 7979.16,10932.2 c 88.79,0 160.75,-59.9 160.75,-133.8 0,-73.9 -71.96,-133.8 -160.75,-133.8 -88.8,0 -160.76,59.9 -160.76,133.8 0,73.9 71.96,133.8 160.76,133.8 z" /></clipPath><linearGradient
       id="linearGradient172"
       spreadMethod="pad"
       gradientTransform="matrix(3.2674264,283.76526,283.76526,-3.2674264,7978.9437,10779.516)"
       gradientUnits="userSpaceOnUse"
       y2="0"
       x2="1"
       y1="0"
       x1="0"><stop
         id="stop168"
         offset="0"
         style="stop-opacity:1;stop-color:#050301" /><stop
         id="stop170"
         offset="1"
         style="stop-opacity:1;stop-color:#ffffff" /></linearGradient><clipPath
       id="clipPath182"
       clipPathUnits="userSpaceOnUse"><path
         id="path180"
         d="m 8307.93,10936 c 80.78,0 146.29,-59.9 146.29,-133.8 0,-73.9 -65.51,-133.8 -146.29,-133.8 -80.81,0 -146.32,59.9 -146.32,133.8 0,73.9 65.51,133.8 146.32,133.8 z" /></clipPath><linearGradient
       id="linearGradient188"
       spreadMethod="pad"
       gradientTransform="matrix(46.27755,319.31509,319.31509,-46.27755,8301.209,10756.002)"
       gradientUnits="userSpaceOnUse"
       y2="0"
       x2="1"
       y1="0"
       x1="0"><stop
         id="stop184"
         offset="0"
         style="stop-opacity:1;stop-color:#050301" /><stop
         id="stop186"
         offset="1"
         style="stop-opacity:1;stop-color:#ffffff" /></linearGradient><clipPath
       id="clipPath200"
       clipPathUnits="userSpaceOnUse"><path
         id="path198"
         d="m 6427.5,10836.6 c 51.86,0 93.91,-40.2 93.91,-89.8 0,-49.6 -42.05,-89.9 -93.91,-89.9 -51.89,0 -93.95,40.3 -93.95,89.9 0,49.6 42.06,89.8 93.95,89.8 z" /></clipPath><linearGradient
       id="linearGradient206"
       spreadMethod="pad"
       gradientTransform="matrix(-4.627726,328.56771,328.56771,4.627726,6428.4433,10679.297)"
       gradientUnits="userSpaceOnUse"
       y2="0"
       x2="1"
       y1="0"
       x1="0"><stop
         id="stop202"
         offset="0"
         style="stop-opacity:1;stop-color:#050301" /><stop
         id="stop204"
         offset="1"
         style="stop-opacity:1;stop-color:#ffffff" /></linearGradient><clipPath
       id="clipPath216"
       clipPathUnits="userSpaceOnUse"><path
         id="path214"
         d="m 6644.25,10936 c 63.86,0 115.61,-40.2 115.61,-89.8 0,-49.6 -51.75,-89.9 -115.61,-89.9 -63.84,0 -115.61,40.3 -115.61,89.9 0,49.6 51.77,89.8 115.61,89.8 z" /></clipPath><linearGradient
       id="linearGradient222"
       spreadMethod="pad"
       gradientTransform="matrix(-13.883207,217.50304,217.50304,13.883207,6647.0469,10802.308)"
       gradientUnits="userSpaceOnUse"
       y2="0"
       x2="1"
       y1="0"
       x1="0"><stop
         id="stop218"
         offset="0"
         style="stop-opacity:1;stop-color:#050301" /><stop
         id="stop220"
         offset="1"
         style="stop-opacity:1;stop-color:#ffffff" /></linearGradient><clipPath
       id="clipPath232"
       clipPathUnits="userSpaceOnUse"><path
         id="path230"
         d="m 6976.64,10932.2 c 75.84,0 137.3,-44.5 137.3,-99.4 0,-54.9 -61.46,-99.4 -137.3,-99.4 -75.81,0 -137.27,44.5 -137.27,99.4 0,54.9 61.46,99.4 137.27,99.4 z" /></clipPath><linearGradient
       id="linearGradient238"
       spreadMethod="pad"
       gradientTransform="matrix(4.6276971,310.05669,310.05669,-4.6276971,6976.0803,10796.061)"
       gradientUnits="userSpaceOnUse"
       y2="0"
       x2="1"
       y1="0"
       x1="0"><stop
         id="stop234"
         offset="0"
         style="stop-opacity:1;stop-color:#050301" /><stop
         id="stop236"
         offset="1"
         style="stop-opacity:1;stop-color:#ffffff" /></linearGradient><clipPath
       id="clipPath248"
       clipPathUnits="userSpaceOnUse"><path
         id="path246"
         d="m 7294.57,10809.8 c 77.8,0 140.88,-48.7 140.88,-108.9 0,-60.2 -63.08,-109 -140.88,-109 -77.84,0 -140.92,48.8 -140.92,109 0,60.2 63.08,108.9 140.92,108.9 z" /></clipPath><linearGradient
       id="linearGradient254"
       spreadMethod="pad"
       gradientTransform="matrix(74.044369,259.15486,259.15486,-74.044369,7285.9663,10670.909)"
       gradientUnits="userSpaceOnUse"
       y2="0"
       x2="1"
       y1="0"
       x1="0"><stop
         id="stop250"
         offset="0"
         style="stop-opacity:1;stop-color:#050301" /><stop
         id="stop252"
         offset="1"
         style="stop-opacity:1;stop-color:#ffffff" /></linearGradient><clipPath
       id="clipPath264"
       clipPathUnits="userSpaceOnUse"><path
         id="path262"
         d="m 6421.36,12154.2 v 0.1 z m -11.04,-233.5 c -10.18,-234 -36.68,-702.1 -36.68,-702.1 -2.14,-27.3 -15.16,-266.4 -2.89,-280.8 31.55,74.7 21.46,216 23.11,291.9 4.1,229.1 18.83,687.2 18.83,687.2 l 8.67,244 z" /></clipPath><linearGradient
       id="linearGradient270"
       spreadMethod="pad"
       gradientTransform="matrix(-4.0637473e-5,929.5164,-929.5164,-4.0637473e-5,6393.4459,11084.572)"
       gradientUnits="userSpaceOnUse"
       y2="0"
       x2="1"
       y1="0"
       x1="0"><stop
         id="stop266"
         offset="0"
         style="stop-opacity:1;stop-color:#050301" /><stop
         id="stop268"
         offset="1"
         style="stop-opacity:1;stop-color:#c1c3c4" /></linearGradient><clipPath
       id="clipPath280"
       clipPathUnits="userSpaceOnUse"><path
         id="path278"
         d="m 6635.71,11991 c 5.18,-241.1 9.41,-723.5 9.41,-723.5 -0.35,-28.7 1.91,-274.1 15.53,-289.3 27.04,78 7.31,221.8 3.96,300.9 -10.93,236 -26.29,708.1 -26.29,708.1 -2.43,83.8 -7.32,251.5 -7.32,251.5 1.56,-82.6 4.71,-247.7 4.71,-247.7 z" /></clipPath><linearGradient
       id="linearGradient286"
       spreadMethod="pad"
       gradientTransform="matrix(-3.9682999e-5,907.56927,-907.56927,-3.9682999e-5,6652.8316,11154.625)"
       gradientUnits="userSpaceOnUse"
       y2="0"
       x2="1"
       y1="0"
       x1="0"><stop
         id="stop282"
         offset="0"
         style="stop-opacity:1;stop-color:#050301" /><stop
         id="stop284"
         offset="1"
         style="stop-opacity:1;stop-color:#c1c3c4" /></linearGradient><clipPath
       id="clipPath296"
       clipPathUnits="userSpaceOnUse"><path
         id="path294"
         d="m 6934.76,11977.5 c 4.8,-239.2 8.24,-717.7 8.24,-717.7 -0.37,-28.2 1.62,-272 15.1,-286.9 27.07,77 7.63,220.3 4.42,298.4 -10.56,234.1 -25.16,702.4 -25.16,702.4 -2.31,83.1 -6.91,249.4 -6.91,249.4 1.44,-81.8 4.31,-245.6 4.31,-245.6 z" /></clipPath><linearGradient
       id="linearGradient302"
       spreadMethod="pad"
       gradientTransform="matrix(-3.9335917e-5,900.20536,-900.20536,-3.9335917e-5,6951.3507,11147.886)"
       gradientUnits="userSpaceOnUse"
       y2="0"
       x2="1"
       y1="0"
       x1="0"><stop
         id="stop298"
         offset="0"
         style="stop-opacity:1;stop-color:#050301" /><stop
         id="stop300"
         offset="1"
         style="stop-opacity:1;stop-color:#c1c3c4" /></linearGradient><clipPath
       id="clipPath312"
       clipPathUnits="userSpaceOnUse"><path
         id="path310"
         d="m 7306.05,11899.4 c 16.43,-224.3 43.18,-673.2 43.18,-673.2 0.98,-25.9 -24.78,-203 0.81,-227.2 22.62,70.6 24.99,166.7 18.14,238.1 -21.96,219.6 -59.33,658.8 -59.33,658.8 -6.36,78 -19.08,234 -19.08,234 5.43,-76.8 16.28,-230.5 16.28,-230.5 z" /></clipPath><linearGradient
       id="linearGradient318"
       spreadMethod="pad"
       gradientTransform="matrix(-3.8554984e-5,882.06745,-882.06745,-3.8554984e-5,7330.6531,11123.416)"
       gradientUnits="userSpaceOnUse"
       y2="0"
       x2="1"
       y1="0"
       x1="0"><stop
         id="stop314"
         offset="0"
         style="stop-opacity:1;stop-color:#050301" /><stop
         id="stop316"
         offset="1"
         style="stop-opacity:1;stop-color:#c1c3c4" /></linearGradient><clipPath
       id="clipPath328"
       clipPathUnits="userSpaceOnUse"><path
         id="path326"
         d="m 7662.7,11984.3 c -13.91,-232.9 -47.69,-698.8 -47.69,-698.8 -2.52,-27.2 -22.01,-286 -10.44,-300.4 31.73,73.9 27.27,236.3 30.16,311.4 7.96,228 30.2,684 30.2,684 4.22,81 12.64,243 12.64,243 -4.94,-79.8 -14.87,-239.2 -14.87,-239.2 z" /></clipPath><linearGradient
       id="linearGradient334"
       spreadMethod="pad"
       gradientTransform="matrix(-4.1129172e-5,941.11471,-941.11471,-4.1129172e-5,7639.2376,11133.742)"
       gradientUnits="userSpaceOnUse"
       y2="0"
       x2="1"
       y1="0"
       x1="0"><stop
         id="stop330"
         offset="0"
         style="stop-opacity:1;stop-color:#050301" /><stop
         id="stop332"
         offset="1"
         style="stop-opacity:1;stop-color:#c1c3c4" /></linearGradient><clipPath
       id="clipPath344"
       clipPathUnits="userSpaceOnUse"><path
         id="path342"
         d="m 7927.82,12050.4 c 18.91,-244.2 50.79,-732.6 50.79,-732.6 1.33,-29.2 17.41,-277.3 31.67,-292.9 21.75,79.6 -5.7,224.4 -13.54,304.8 -24.15,238.9 -66.18,716.8 -66.18,716.8 -7.2,84.9 -21.57,254.6 -21.57,254.6 6.28,-83.6 18.83,-250.7 18.83,-250.7 z" /></clipPath><linearGradient
       id="linearGradient350"
       spreadMethod="pad"
       gradientTransform="matrix(-4.0174698e-5,918.84075,-918.84075,-4.0174698e-5,7963.73,11203.592)"
       gradientUnits="userSpaceOnUse"
       y2="0"
       x2="1"
       y1="0"
       x1="0"><stop
         id="stop346"
         offset="0"
         style="stop-opacity:1;stop-color:#050301" /><stop
         id="stop348"
         offset="1"
         style="stop-opacity:1;stop-color:#c1c3c4" /></linearGradient><clipPath
       id="clipPath360"
       clipPathUnits="userSpaceOnUse"><path
         id="path358"
         d="m 8146.91,12043.1 c 35.14,-241.2 99.47,-723.7 99.47,-723.7 3.24,-28.6 36.1,-274.2 51.14,-289.2 16.31,78.7 -20.63,221.9 -33.79,301.1 -40.03,236 -113.81,708 -113.81,708 -12.84,83.8 -38.5,251.4 -38.5,251.4 11.83,-82.5 35.49,-247.6 35.49,-247.6 z" /></clipPath><linearGradient
       id="linearGradient366"
       spreadMethod="pad"
       gradientTransform="matrix(-3.9682999e-5,907.56059,-907.56059,-3.9682999e-5,8206.5136,11206.716)"
       gradientUnits="userSpaceOnUse"
       y2="0"
       x2="1"
       y1="0"
       x1="0"><stop
         id="stop362"
         offset="0"
         style="stop-opacity:1;stop-color:#050301" /><stop
         id="stop364"
         offset="1"
         style="stop-opacity:1;stop-color:#c1c3c4" /></linearGradient><clipPath
       id="clipPath376"
       clipPathUnits="userSpaceOnUse"><path
         id="path374"
         d="m 8445.95,11981 c 30.6,-235.9 85.88,-708.1 85.88,-708.1 2.72,-27.8 34.99,-308.2 49.48,-322.7 17.68,76 -20.36,257.7 -31.9,334.3 -35.6,230.9 -100.51,692.8 -100.51,692.8 -11.28,82.1 -33.78,246.1 -33.78,246.1 10.27,-80.8 30.83,-242.4 30.83,-242.4 z" /></clipPath><linearGradient
       id="linearGradient382"
       spreadMethod="pad"
       gradientTransform="matrix(-4.2286111e-5,967.62596,-967.62596,-4.2286111e-5,8500.4917,11102.996)"
       gradientUnits="userSpaceOnUse"
       y2="0"
       x2="1"
       y1="0"
       x1="0"><stop
         id="stop378"
         offset="0"
         style="stop-opacity:1;stop-color:#050301" /><stop
         id="stop380"
         offset="1"
         style="stop-opacity:1;stop-color:#c1c3c4" /></linearGradient><clipPath
       id="clipPath396"
       clipPathUnits="userSpaceOnUse"><path
         id="path394"
         d="m 7511.84,8322.86 c 385.78,0 698.53,-122.35 698.53,-273.25 0,-150.89 -312.75,-273.23 -698.53,-273.23 -385.81,0 -698.56,122.34 -698.56,273.23 0,150.9 312.75,273.25 698.56,273.25 z" /></clipPath><linearGradient
       id="linearGradient402"
       spreadMethod="pad"
       gradientTransform="matrix(-3.277029e-5,-749.6963,-749.6963,3.277029e-5,7511.8297,8004.8591)"
       gradientUnits="userSpaceOnUse"
       y2="0"
       x2="1"
       y1="0"
       x1="0"><stop
         id="stop398"
         offset="0"
         style="stop-opacity:1;stop-color:#050301" /><stop
         id="stop400"
         offset="1"
         style="stop-opacity:1;stop-color:#ffffff" /></linearGradient><clipPath
       id="clipPath412"
       clipPathUnits="userSpaceOnUse"><path
         id="path410"
         d="m 7507.21,9701.23 c 38.76,0 103.37,-54 103.37,-79.48 0,-25.48 -37.71,-26.14 -106.35,-26.14 -68.63,0 -112.34,3.98 -112.34,29.47 0,25.48 67.63,76.15 115.32,76.15 z" /></clipPath><linearGradient
       id="linearGradient418"
       spreadMethod="pad"
       gradientTransform="matrix(-2.4006479e-6,54.931741,-54.931741,-2.4006479e-6,7501.2148,9620.929)"
       gradientUnits="userSpaceOnUse"
       y2="0"
       x2="1"
       y1="0"
       x1="0"><stop
         id="stop414"
         offset="0"
         style="stop-opacity:1;stop-color:#f8a29d" /><stop
         id="stop416"
         offset="1"
         style="stop-opacity:1;stop-color:#86252b" /></linearGradient><clipPath
       id="clipPath432"
       clipPathUnits="userSpaceOnUse"><path
         id="path430"
         d="m 6640.23,8371.07 c 60.82,-63.49 137.65,-129.49 247.18,-200.7 -44.54,-59.53 -89.05,-119.02 -133.6,-178.55 -155.11,-207.23 -123.93,-197.83 -118.67,95.34 1.7,94.63 3.38,189.27 5.09,283.91 z" /></clipPath><linearGradient
       id="linearGradient438"
       spreadMethod="pad"
       gradientTransform="matrix(-185.41158,-519.09527,519.09527,-185.41158,6776.5373,8306.3285)"
       gradientUnits="userSpaceOnUse"
       y2="0"
       x2="1"
       y1="0"
       x1="0"><stop
         id="stop434"
         offset="0"
         style="stop-opacity:1;stop-color:#050301" /><stop
         id="stop436"
         offset="1"
         style="stop-opacity:1;stop-color:#ffffff" /></linearGradient><clipPath
       id="clipPath450"
       clipPathUnits="userSpaceOnUse"><path
         id="path448"
         d="m 8378.16,8384 c -60.8,-63.46 -137.62,-129.49 -247.18,-200.7 44.54,-59.5 89.08,-119.02 133.62,-178.52 155.09,-207.26 123.94,-197.87 118.67,95.31 -1.7,94.63 -3.41,189.27 -5.11,283.91 z" /></clipPath><linearGradient
       id="linearGradient456"
       spreadMethod="pad"
       gradientTransform="matrix(185.41042,-519.09527,519.09527,185.41042,8241.8291,8319.2862)"
       gradientUnits="userSpaceOnUse"
       y2="0"
       x2="1"
       y1="0"
       x1="0"><stop
         id="stop452"
         offset="0"
         style="stop-opacity:1;stop-color:#050301" /><stop
         id="stop454"
         offset="1"
         style="stop-opacity:1;stop-color:#ffffff" /></linearGradient><clipPath
       id="clipPath466"
       clipPathUnits="userSpaceOnUse"><path
         id="path464"
         d="m 7096.04,8776.87 c 207.23,26.86 359.11,187.62 339.27,359.08 -19.85,171.49 -203.88,288.71 -411.12,261.87 -207.21,-26.84 -359.09,-187.62 -339.24,-359.08 19.81,-171.49 203.88,-288.72 411.09,-261.87 z" /></clipPath><linearGradient
       id="linearGradient472"
       spreadMethod="pad"
       gradientTransform="matrix(-136.31052,390.48996,-390.48996,-136.31052,7067.1892,9067.0157)"
       gradientUnits="userSpaceOnUse"
       y2="0"
       x2="1"
       y1="0"
       x1="0"><stop
         id="stop468"
         offset="0"
         style="stop-opacity:1;stop-color:#050301" /><stop
         id="stop470"
         offset="1"
         style="stop-opacity:1;stop-color:#ffffff" /></linearGradient><clipPath
       id="clipPath482"
       clipPathUnits="userSpaceOnUse"><path
         id="path480"
         d="m 7093.43,8799.51 c 193.93,25.11 336.21,174.35 317.81,333.35 -18.39,158.96 -190.49,267.48 -384.42,242.35 -193.93,-25.14 -336.21,-174.38 -317.81,-333.35 18.37,-158.99 190.49,-267.48 384.42,-242.35 z" /></clipPath><radialGradient
       id="radialGradient492"
       spreadMethod="pad"
       gradientTransform="matrix(268.07572,0,0,268.07572,7081.2749,9099.005)"
       gradientUnits="userSpaceOnUse"
       r="1"
       cy="0"
       cx="0"
       fy="0"
       fx="0"><stop
         id="stop484"
         offset="0"
         style="stop-opacity:1;stop-color:#ffffff" /><stop
         id="stop486"
         offset="0.360784"
         style="stop-opacity:1;stop-color:#f9fabb" /><stop
         id="stop488"
         offset="0.45098"
         style="stop-opacity:1;stop-color:#eef15b" /><stop
         id="stop490"
         offset="1"
         style="stop-opacity:1;stop-color:#f25539" /></radialGradient><clipPath
       id="clipPath506"
       clipPathUnits="userSpaceOnUse"><path
         id="path504"
         d="m 6850.79,9278.75 c 2.78,-9.61 19.06,-10.73 36.36,-2.55 17.3,8.19 29.07,22.59 26.29,32.19 -2.78,9.61 -19.06,10.74 -36.36,2.55 -17.29,-8.19 -29.06,-22.59 -26.29,-32.19 z m 72.92,44.63 c 0.14,-15.65 31.99,-22.94 71.12,-16.34 39.13,6.62 70.75,24.67 70.6,40.31 -0.14,15.65 -31.98,22.97 -71.12,16.35 -39.13,-6.63 -70.75,-24.68 -70.6,-40.32 z" /></clipPath><linearGradient
       id="linearGradient516"
       spreadMethod="pad"
       gradientTransform="matrix(38.504078,-119.81547,119.81547,38.504078,6937.1782,9378.9553)"
       gradientUnits="userSpaceOnUse"
       y2="0"
       x2="1"
       y1="0"
       x1="0"><stop
         id="stop508"
         offset="0"
         style="stop-opacity:1;stop-color:#f25539" /><stop
         id="stop510"
         offset="0.54902"
         style="stop-opacity:1;stop-color:#eef15b" /><stop
         id="stop512"
         offset="0.639216"
         style="stop-opacity:1;stop-color:#f9fabb" /><stop
         id="stop514"
         offset="1"
         style="stop-opacity:1;stop-color:#ffffff" /></linearGradient><clipPath
       id="clipPath526"
       clipPathUnits="userSpaceOnUse"><path
         id="path524"
         d="m 7945.11,8677.89 c -240.03,31.09 -415.97,217.33 -393.01,415.98 22.99,198.65 236.22,334.44 476.26,303.35 240.03,-31.13 416,-217.36 393.01,-415.98 -22.97,-198.65 -236.19,-334.47 -476.26,-303.35 z" /></clipPath><linearGradient
       id="linearGradient532"
       spreadMethod="pad"
       gradientTransform="matrix(157.89842,452.36016,-452.36016,157.89842,7978.5099,9014.0279)"
       gradientUnits="userSpaceOnUse"
       y2="0"
       x2="1"
       y1="0"
       x1="0"><stop
         id="stop528"
         offset="0"
         style="stop-opacity:1;stop-color:#050301" /><stop
         id="stop530"
         offset="1"
         style="stop-opacity:1;stop-color:#ffffff" /></linearGradient><clipPath
       id="clipPath542"
       clipPathUnits="userSpaceOnUse"><path
         id="path540"
         d="m 7948.15,8704.09 c -224.65,29.13 -389.49,202.01 -368.17,386.19 21.29,184.16 220.69,309.86 445.34,280.73 224.65,-29.1 389.48,-202 368.16,-386.15 C 8372.2,8800.7 8172.8,8675 7948.15,8704.09 Z" /></clipPath><radialGradient
       id="radialGradient552"
       spreadMethod="pad"
       gradientTransform="matrix(310.54839,0,0,310.54839,7962.226,9051.0499)"
       gradientUnits="userSpaceOnUse"
       r="1"
       cy="0"
       cx="0"
       fy="0"
       fx="0"><stop
         id="stop544"
         offset="0"
         style="stop-opacity:1;stop-color:#ffffff" /><stop
         id="stop546"
         offset="0.360784"
         style="stop-opacity:1;stop-color:#f9fabb" /><stop
         id="stop548"
         offset="0.45098"
         style="stop-opacity:1;stop-color:#eef15b" /><stop
         id="stop550"
         offset="1"
         style="stop-opacity:1;stop-color:#f25539" /></radialGradient><clipPath
       id="clipPath562"
       clipPathUnits="userSpaceOnUse"><path
         id="path560"
         d="m 8238.43,9255.43 c -3.22,-11.1 -22.07,-12.43 -42.12,-2.95 -20.04,9.49 -33.67,26.21 -30.45,37.32 3.24,11.1 22.09,12.43 42.11,2.95 20.05,-9.49 33.69,-26.18 30.46,-37.32 z m -84.46,51.75 c -0.17,-18.14 -37.05,-26.61 -82.4,-18.95 -45.33,7.67 -81.94,28.58 -81.77,46.72 0.17,18.1 37.05,26.58 82.4,18.91 45.33,-7.66 81.94,-28.57 81.77,-46.68 z" /></clipPath><linearGradient
       id="linearGradient572"
       spreadMethod="pad"
       gradientTransform="matrix(44.611558,-138.78637,138.78637,44.611558,8090.6172,9370.7989)"
       gradientUnits="userSpaceOnUse"
       y2="0"
       x2="1"
       y1="0"
       x1="0"><stop
         id="stop564"
         offset="0"
         style="stop-opacity:1;stop-color:#f25539" /><stop
         id="stop566"
         offset="0.54902"
         style="stop-opacity:1;stop-color:#eef15b" /><stop
         id="stop568"
         offset="0.639216"
         style="stop-opacity:1;stop-color:#f9fabb" /><stop
         id="stop570"
         offset="1"
         style="stop-opacity:1;stop-color:#ffffff" /></linearGradient></defs><g
     transform="matrix(1.3333333,0,0,-1.3333333,0,6762.6667)"
     id="g10"><g
       transform="scale(0.34574)"
       id="g12"><path
         id="path14"
         style="fill:rgba(0,0,0,0.2);fill-opacity:1;fill-rule:nonzero;stroke:none"
         d="m 8326.38,7396.26 c 109.33,-848.7 579.69,-1215.94 574.97,-1918.09 -1.85,-276.88 -254.9,-1086.97 -300.77,-1612.43 -5.01,-57.15 -9.03,-115 -11.98,-173.11 409.1,-167.61 887.03,74.86 1004.08,717.42 65.11,357.56 -65.13,667.09 -186.38,1003.33 -311.88,864.78 -133.51,2559.3 224.94,2402.76 199.86,-87.29 -361.29,-911.9 53.85,-2369.59 211.66,-476.07 263.23,-1000.89 82.52,-1412.44 -213.54,-486.29 -711.11,-775.27 -1183.72,-639.39 2.69,-127.06 11.77,-252.04 28.75,-370.51 19.41,-135.3 76.18,-232.89 248.65,-399.4 106.27,-102.6 186.24,-213.34 225.64,-338.18 19.26,-61.05 57.47,-169.23 31.32,-241.07 -8.24,-22.65 -10.04,-12.47 -3.3,-36.76 11.98,-43.25 8.36,-107.57 -8.59,-143.32 -12.7,-26.75 -11.91,-15.3 -15.47,5.21 -5.5,31.84 -13.42,75.8 -28.72,99.41 -10.79,16.57 -11.34,9.86 -27.71,5.23 -12.55,-3.56 -29.16,-6.97 -42.72,-7.29 -20.88,-0.43 -15.47,8.16 -16.43,-11.02 -1.3,-26.38 -16.95,-52 -34.16,-68.63 -19.61,-18.92 -16.08,-4.57 -12.17,-33.99 7.81,-58.8 -7.32,-125.73 -18.6,-154.85 -9.08,-23.43 -5.04,52.09 -48.27,127.92 -10.25,18.02 -8.71,13.6 -28.93,15.65 -20.1,2.06 -40.2,5.09 -59.29,14.26 -17.53,8.44 -9.2,9.32 -22.85,-8.5 -27.88,-36.39 -57.99,-50.79 -80.44,-59.18 -18.31,-6.88 -22.71,-2.52 -17.7,-23.77 5.76,-24.5 27.71,-67.75 38.06,-89.79 9.67,-20.53 24.97,-41.44 -1.67,-25.82 -28.7,14.25 -70.98,54.26 -96.32,90.96 -20.22,29.3 -2.29,24.44 -38.96,27.36 -37.86,3.04 -65.92,16.86 -90.76,37.46 -23.34,19.35 -11.89,15.38 -38.82,0.72 -17.81,-9.71 -38.67,-18.16 -61,-22.82 -19.32,-3.99 -20.94,2.61 -24.06,-16.69 -7.72,-47.58 5.26,-78.93 26.29,-109.1 18.31,-26.32 37.92,-45.26 -0.23,-18.8 -58.37,40.55 -91.63,101 -109.54,150.29 -1.47,4.02 -2.83,7.98 -4.1,11.86 -1.59,0.98 -3.18,1.99 -4.77,3.07 -5.07,3.38 -10.07,7.14 -14.98,11.36 -48.95,41.68 -80.44,119.05 -93.98,178.66 -39.42,173.4 13.91,381.59 75.46,555.97 90.39,256.15 122.93,319.17 152.03,601.55 11.77,114.28 18.59,219.82 19.34,326.84 -125.58,71.41 -245.99,177.01 -354.97,321.42 -97.24,128.91 -169.87,283.92 -207.38,462.55 -20.54,97.7 -29.31,191.41 -33.88,284.9 -168.16,-23 -318.21,-109.4 -340.83,-244.09 -79.57,-473.62 -84.92,-741.6 -41.68,-1096.75 34.74,-285.54 68.55,-351.86 164.12,-617.23 65.07,-180.66 122.6,-394.31 86.59,-563.98 -12.38,-58.34 -42.37,-132.64 -90.53,-169.55 -4.83,-3.7 -9.78,-7 -14.78,-9.86 -1.56,-0.93 -3.12,-1.76 -4.71,-2.6 -1.19,-3.73 -2.49,-7.58 -3.88,-11.49 -16.92,-47.52 -49.03,-104.76 -106.64,-139.53 -37.69,-22.7 -18.43,-5.69 -0.61,18.83 20.45,28.09 32.8,58.2 24.15,106.59 -3.5,19.61 -5.03,13.19 -24.41,19.12 -22.44,6.85 -43.5,17.38 -61.52,28.86 -27.24,17.36 -15.88,20.19 -38.84,3.12 -24.44,-18.13 -52.27,-29.18 -90.13,-28.45 -36.64,0.69 -18.8,3.79 -38.44,-23.55 -24.61,-34.21 -66.14,-70.08 -94.61,-81.5 -26.35,-12.99 -11.45,6.41 -2.2,26 9.93,21.06 31.07,62.15 36.33,86.13 4.57,20.77 0.29,16.84 -18.19,25.54 -22.62,10.62 -53.05,28 -81.68,67.19 -14.03,19.21 -5.67,17.5 -23.05,10.82 -18.92,-7.32 -38.96,-8.36 -59.07,-8.42 -20.18,-0.06 -18.74,4.22 -28.63,-12.78 -41.79,-71.65 -36.24,-147.63 -45.78,-123.28 -11.89,30.29 -28.35,98.75 -21.69,156.86 3.29,29.07 7.14,14.34 -12.88,35.23 -17.55,18.33 -33.72,45.55 -35.57,72.07 -1.33,19.3 4.25,10.16 -16.66,12.67 -13.57,1.65 -30.26,6.74 -42.9,11.54 -16.48,6.25 -17.18,13.02 -27.62,-2.51 -14.87,-22.1 -21.92,-65.31 -26.78,-96.64 -3.15,-20.19 -2.11,-31.73 -15.36,-3.67 -17.67,37.45 -22.62,102.19 -11.45,144.3 6.24,23.63 4.65,13.62 -4.05,37.14 -27.6,74.47 8.5,178.97 26.55,238.18 36.96,121.04 114.8,223.99 219.15,316.17 169.32,149.53 224.22,241.59 240.94,375.1 32.68,260.89 25.45,558.17 -4.63,841.16 -85.53,805.29 -291.76,979.2 -382.05,1498.52 -116.25,668.37 251.23,966.51 255.91,1845.5 0.72,132.41 -17.96,268.9 -42.08,400.96 -4.8,1.97 -9.6,3.97 -14.38,5.99 l -36.07,-52.38 c -285.47,-414.48 -224.27,-395.7 -248.71,190.63 l -0.92,22.45 c -224.22,164.02 -368.14,382.8 -382.49,623.13 -10.41,174.93 49.17,338.43 161.34,477.76 71.03,88.24 163.18,166.77 271.97,232.31 -11.03,29.9 -21.21,60.22 -27.22,93.37 -230.15,-3.27 -431.37,33.89 -685.72,105.36 -31.79,8.94 -123.68,33.44 -85.47,35.43 15.33,0.81 121.88,-22.99 146.61,-28.75 218,-50.61 414.59,-80.92 619.8,-74.94 -0.2,2.72 -0.34,5.47 -0.49,8.22 -1.38,28.34 -0.34,56.8 2.29,85.38 -80.49,17.79 -162.64,40.29 -243.71,66.06 -246.75,78.41 -483.92,186.9 -636.23,283.71 l -0.18,0.15 c -49.89,32.82 -141.49,93.27 -145.85,99.58 -9.55,13.59 7.8,4.02 12.75,1.27 14.81,-8.15 49.05,-28.72 107.34,-64.7 197.19,-121.8 517.12,-242.2 772.95,-312.81 46.68,-12.87 92.7,-24.55 137.35,-34.79 2.81,20.65 6.25,41.33 9.98,62.04 -210.59,61.03 -426.65,143.31 -547.98,240.04 -9.95,7.92 -16.02,13.47 -19.12,17.2 -0.09,0.09 -4.83,2 -2.29,5.7 3.27,4.69 36.62,-18.37 46.52,-23.95 140.19,-79.1 336.78,-151.58 529.29,-205.06 4.52,23.42 9.26,46.82 13.71,70.22 -30.83,13.74 -59.35,27.07 -85.72,40 -164.49,80.58 -245.07,144.74 -277.01,182.86 -11.33,13.53 -14.14,20.04 -11.8,22.21 4.98,4.57 36.24,-24.21 46.43,-31.35 72.01,-50.56 192.69,-116.45 334.5,-179.1 4.68,26.76 8.76,53.43 11.51,79.98 10.78,103.98 45.46,275.88 -48.94,372.48 -166.28,42.4 -324.46,139.7 -392.26,317 -28.29,73.9 -30.54,148.1 8.3,210.3 -18.25,81.8 1.33,133.2 34.68,158.1 17.82,13 -4.98,-61.7 34.36,-101.8 26.64,5.1 50.93,-3.2 91.71,-22.2 -1.35,56.5 49.73,100.2 96.15,120.2 0.95,40.8 25.89,98.6 50.5,122.9 21.98,21.6 -8.56,-12 13.21,-118.5 45.56,-14.1 124.84,-46.5 151.97,-104.9 20.42,44.7 69.59,94.2 124.8,98 11.52,26 8.6,52.7 3.39,83.1 -3.91,22.8 -14.81,47.5 12.41,24.8 22.93,-19.2 51.19,-62.9 56.98,-112.2 87.43,-15.9 169.23,-96 172.44,-166.1 38.53,40.3 76.76,51.1 140.14,48.9 51.94,59.3 50.03,100.5 32.73,143.3 -12.52,30.9 -29.56,54.9 7.73,18.3 72.3,-70.8 81.3,-161.8 77.08,-216.5 32.91,-53.1 31.09,-118.2 7.87,-185 -67.16,-193.6 -215.46,-298.6 -385.47,-332.1 -97.91,-93.55 -93.71,-337.9 -76.82,-527 90.97,-31.93 184.48,-59.58 275.04,-79.31 26.6,-5.78 22.93,-2.14 45.14,8.07 128.14,58.8 268.39,81.97 413.44,42.09 44.42,-12.21 86.77,-29.16 126.68,-48.42 l 0.29,-0.12 c 23.29,-11.33 17.15,-9.89 41.42,-4.13 88.47,21 178.49,49.63 265.05,82.23 -5.52,184.47 -29.47,421.3 -131.89,519.59 -191.06,23 -372.44,128.8 -470.49,339.1 -31.18,66.8 -40.76,131.9 -14.21,185 -10.73,54.7 -12.61,145.7 51.26,216.5 32.94,36.6 18.74,12.6 9.95,-18.3 -12.21,-42.8 -9.23,-84 49.8,-143.3 63.11,2.2 102.65,-8.6 145.98,-48.9 -5.15,70.1 67.07,150.2 152.63,166.1 -0.09,49.3 22.93,93 43.59,112.2 24.52,22.7 16.57,-2 15.38,-24.8 -1.59,-30.4 -1.33,-57.1 13.28,-83.1 55.68,-3.8 110.75,-53.3 136.49,-98 20.19,58.4 95.59,90.8 139.47,104.9 9.05,106.5 -25.51,140.1 -0.93,118.5 27.54,-24.3 59.35,-82.1 65.17,-122.9 48.79,-20 105.1,-63.7 110.46,-120.2 38.55,19 61.84,27.3 89.05,22.2 34.59,40.1 2.86,114.8 22.24,101.8 28.67,-17.2 68.12,-57.2 66.15,-127.5 154.48,-188.9 -103.49,-479.4 -279.55,-541.3 -106.11,-92.2 -45.58,-278.86 -20.99,-389.05 5.75,-25.83 12.75,-51.72 20.36,-77.66 131.17,62.73 257.22,136.14 311.77,185.57 5.67,5.12 19.23,18.74 23.51,15.15 2.52,-2.11 0.35,-8.67 -9.89,-22.84 -27.88,-38.56 -102.16,-103.58 -260.2,-185.23 -17.23,-8.88 -35.43,-17.99 -54.72,-27.27 7.61,-24.56 15.53,-49.18 23.23,-73.76 180.94,53.42 361.13,124.26 486.32,200.79 8.67,5.29 36.56,26.35 40.23,21.81 1.85,-2.32 -2.84,-8.86 -18.72,-22.86 -106.81,-94.14 -303.34,-173.77 -497.51,-233.41 6.36,-21.14 12.38,-42.28 17.7,-63.4 37.37,9.14 75.49,19.32 114.02,30.34 246.6,70.61 550.41,190.52 732.54,311.88 54,36.02 85.76,56.58 99.59,64.74 4.66,2.75 20.85,12.32 12.92,-1.28 -4.74,-8.21 -86.27,-64.49 -133.76,-99.46 l -0.27,-0.18 c -139.64,-96.08 -361.51,-203.68 -596.83,-281.94 -72.48,-24.1 -146.24,-45.41 -219.27,-62.77 5.78,-27.74 10.04,-55.39 11.97,-82.89 0.38,-5.53 0.64,-10.99 0.75,-16.34 197.75,-3.33 384.52,26.61 588.89,75.43 24.01,5.73 127.81,29.56 143.17,28.75 38.41,-2.03 -50.5,-26.52 -81.22,-35.43 -239.8,-69.74 -428.76,-106.53 -651.99,-105.46 -2.72,-31.9 -9.4,-61.32 -16.75,-90.42 118.36,-67.56 220.86,-148.63 302.31,-239.66 122.26,-136.63 197.17,-295.74 207.3,-465.63 13.59,-227.78 -91.55,-436.17 -276.74,-596.96 l 2.74,-35.66 c 45.5,-586.34 108.96,-605.14 -225.95,-190.63 l -43.53,53.85 c -17.38,-8.3 -35.02,-16.28 -52.9,-23.89 -13.07,-97.88 -19.06,-196.18 -7,-289.87 z m 363.57,2459.65 z M 7835,9486.21 Z m -1680.98,290.8 z m -470.98,86.05 v 0" /><g
         id="g16"><g
           clip-path="url(#clipPath22)"
           id="g18"><path
             id="path32"
             style="fill:url(#linearGradient30);fill-opacity:1;fill-rule:nonzero;stroke:none"
             d="m 3405.92,12960 c 4303.58,-447.5 5413.52,-201.9 8222.38,-23.8 -1068.5,-56.4 -1517.1,-893 -2190.04,-1640.8 -1257.83,-1397.58 -2859.21,-1544.48 -4063.23,17.2 -658.42,853.9 -881.73,1359.9 -1969.11,1647.4 v 0" /></g></g><g
         id="g34"><g
           clip-path="url(#clipPath40)"
           id="g36"><path
             id="path48"
             style="fill:url(#linearGradient46);fill-opacity:1;fill-rule:nonzero;stroke:none"
             d="m 3405.92,12960 c 6268.47,-26.6 6311.16,-9.8 8222.38,-22 -1068.5,-52.2 -1517.1,-827 -2190.04,-1519.5 -1257.83,-1294.3 -2859.21,-1430.29 -4063.23,15.9 -658.42,790.8 -881.73,1259.3 -1969.11,1525.6 v 0" /></g></g><path
         id="path50"
         style="fill:#c1c3c4;fill-opacity:1;fill-rule:nonzero;stroke:none"
         d="m 7034.83,11066.9 c 723.53,-19.3 1132.01,-30.2 1733.99,478.5 490.03,414 994.11,1111.9 1613.58,1299 -542.19,-238.4 -861.27,-632.6 -1267.3,-1045.2 -625.15,-635.2 -1176.67,-878.1 -2080.24,-732.3 z m 105.08,842 c 503.88,2.8 874.16,4.2 1355.59,210.2 180.22,77.1 287.21,150.7 445.8,257.6 -424.05,-434.9 -1216.53,-572.7 -1801.39,-467.8 z m -2026.52,202.7 c 597.15,-695.5 1056.17,-1250.9 2025.77,-1393.9 630.3,-93 1193.5,72.2 1708.25,437.4 l 93.89,67.7 c -335.84,-300.1 -730.06,-487.3 -1176.7,-551.7 -1178.4,-170 -2014.12,535.1 -2651.21,1440.5 z m 330.24,202.7 c 479.99,-469.9 852.12,-803 1537,-930 302.54,-56.2 535.29,-42.9 834.82,-52.3 -978.92,-128.9 -1764.42,199.4 -2371.82,982.3 v 0" /><path
         id="path52"
         style="fill:#75787f;fill-opacity:1;fill-rule:nonzero;stroke:none"
         d="m 3405.92,12960 c 1032.83,-172.1 1386.67,-777.5 1998.38,-1501.2 1193.12,-1411.6 2762.19,-1273.9 4005.65,-12.6 645.95,655.2 1203.55,1521.2 2218.35,1491.8 l -93.3,-4.6 c -960.3,-60.9 -1476.3,-876.4 -2096.74,-1514.9 -1257.83,-1294.3 -2859.21,-1430.29 -4063.23,15.9 -658.42,790.8 -881.73,1259.3 -1969.11,1525.6 v 0" /><path
         id="path54"
         style="fill:#050301;fill-opacity:1;fill-rule:nonzero;stroke:none"
         d="m 7675.2,5470.82 c 63.95,-370.42 18.42,-516.6 26.46,-857 5.21,-221.06 71.24,-396.75 174.99,-527.42 401.43,-505.52 1149.65,-337.51 1348.1,483.19 86.45,357.59 -25.31,667.12 -126.54,1003.33 -260.28,864.79 19.11,2559.3 368.22,2402.76 194.69,-87.26 -415.66,-911.87 -87.43,-2369.55 183.25,-476.11 203.53,-1000.9 -1.74,-1412.48 C 9033.97,3505.32 8145.12,3212.36 7625.65,3960 c -89.57,128.91 -152.94,283.92 -179.81,462.52 -49.14,326.55 30.48,608.18 -34.89,987.02 -15.99,77.22 30.2,153.52 103.18,170.47 72.97,16.92 145.07,-31.96 161.07,-109.19 v 0" /><g
         id="g56"><g
           clip-path="url(#clipPath62)"
           id="g58"><path
             id="path70"
             style="fill:url(#linearGradient68);fill-opacity:1;fill-rule:nonzero;stroke:none"
             d="m 9322.34,7265.06 c 14.31,117.29 134.86,425.7 151.21,585.94 4.36,42.77 3.12,76.99 -13.19,90.21 -28.55,23.11 -56.58,16.83 -81.51,-1.74 -111.58,-83.04 -200.96,-384.77 -235.99,-532.62 43.21,-65.89 119.05,-111.39 179.48,-141.79 v 0" /></g></g><path
         id="path72"
         style="fill:#050301;fill-opacity:1;fill-rule:nonzero;stroke:none"
         d="m 8136.59,7555.8 c -25.17,363.54 225.51,796.5 95.24,1005.04 -211.52,338.63 -630.36,369.41 -721.18,400.38 -63.2,-77.8 -532.33,-49.68 -718.6,-346.5 -126.95,-202.26 72.02,-708.86 42.25,-1166.51 -57.09,-878.99 -442.35,-1177.16 -365.96,-1845.53 59.32,-519.29 255.16,-693.23 292.67,-1498.49 13.19,-283.02 2.72,-580.26 -45.52,-841.15 -24.7,-133.54 -85.1,-225.58 -263.32,-375.15 -109.85,-92.14 -193.85,-195.09 -237.98,-316.16 -21.61,-59.2 -63.96,-163.68 -40.79,-238.18 7.32,-23.51 9.49,-13.48 1.83,-37.14 -13.66,-42.08 -12.59,-106.82 2.86,-144.27 11.57,-28.09 11.22,-16.51 15.56,3.67 6.77,31.33 16.4,74.54 32.57,96.64 11.37,15.53 11.66,8.76 27.76,2.48 12.36,-4.8 28.73,-9.86 42.23,-11.51 20.74,-2.51 15.71,6.6 15.88,-12.67 0.26,-26.52 14.81,-53.73 31.3,-72.07 18.74,-20.89 15.79,-6.19 10.73,-35.23 -10.1,-58.11 2.28,-126.57 12.35,-156.85 8.1,-24.36 7.08,51.62 53.13,123.27 10.94,17.01 9.23,12.72 29.42,12.78 20.1,0.06 40.2,1.1 59.55,8.39 17.79,6.71 9.52,8.42 22.41,-10.79 26.3,-39.19 55.68,-56.57 77.66,-67.22 17.97,-8.67 22.51,-4.77 16.69,-25.54 -6.7,-23.94 -30.28,-65.04 -41.47,-86.1 -10.41,-19.61 -26.5,-38.99 0.66,-26 29.13,11.42 72.8,47.26 99.47,81.5 21.26,27.31 3.24,24.21 39.83,23.52 37.8,-0.73 66.29,10.35 91.83,28.49 23.98,17.06 12.44,14.2 38.64,-3.13 17.35,-11.48 37.78,-22.04 59.79,-28.89 19.06,-5.9 20.97,0.52 23.28,-19.09 5.78,-48.39 -8.39,-78.5 -30.48,-106.61 -19.3,-24.53 -39.57,-41.54 -0.56,-18.83 59.73,34.79 95.22,92.03 115,139.56 1.63,3.9 3.13,7.72 4.55,11.48 1.65,0.81 3.26,1.67 4.88,2.57 5.18,2.89 10.3,6.19 15.36,9.89 50.36,36.91 84.78,111.21 100.63,169.55 46.13,169.67 1.36,383.33 -52.93,563.98 -79.77,265.37 -109.62,331.67 -127.33,617.23 -22.03,355.15 -0.72,623.13 107.11,1096.72 70.43,309.48 798.14,364.06 847.43,-19.9 64.27,-500.75 59.9,-773.33 1.59,-1131.69 -45.96,-282.41 -82.23,-345.4 -187.91,-601.58 -71.94,-174.35 -137.68,-382.54 -108.61,-555.94 9.98,-59.61 36.87,-136.98 83.3,-178.68 4.68,-4.2 9.45,-7.99 14.31,-11.34 1.53,-1.07 3.07,-2.09 4.6,-3.07 1.04,-3.88 2.17,-7.84 3.39,-11.89 14.98,-49.26 44.63,-109.73 100.59,-150.26 36.56,-26.46 18.08,-7.52 1.33,18.78 -19.2,30.16 -30.31,61.54 -19.78,109.12 4.28,19.27 5.52,12.7 25.08,16.69 22.59,4.63 43.96,13.11 62.36,22.79 27.79,14.67 16.57,18.63 38.75,-0.69 23.61,-20.59 50.85,-34.42 88.54,-37.46 36.5,-2.94 18.85,1.94 37.34,-27.36 23.14,-36.7 63.02,-76.7 90.87,-90.96 25.72,-15.62 11.66,5.26 3.25,25.8 -9.06,22.07 -28.44,65.31 -32.75,89.81 -3.7,21.23 0.41,16.89 19.15,23.77 22.94,8.39 53.88,22.77 83.94,59.18 14.75,17.82 6.36,16.92 23.37,8.5 18.54,-9.17 38.43,-12.2 58.45,-14.26 20.07,-2.05 18.8,2.35 27.97,-15.65 38.73,-75.83 30.17,-151.35 40.67,-127.92 13.01,29.12 32.13,96.02 27.82,154.85 -2.14,29.42 -6.53,15.07 14.2,33.99 18.2,16.63 35.37,42.25 38.27,68.63 2.08,19.15 -3.82,10.56 17.06,11.02 13.6,0.29 30.4,3.73 43.16,7.29 16.66,4.63 17.61,11.34 27.39,-5.23 13.91,-23.6 19.2,-67.57 22.82,-99.41 2.31,-20.51 0.84,-31.99 15.12,-5.21 19.09,35.75 26.59,100.08 17.16,143.32 -5.3,24.26 -4.11,14.08 5.49,36.76 30.43,71.85 -1.33,179.99 -16.95,241.05 -31.93,124.83 -105.31,235.61 -205.44,338.2 -162.55,166.51 -213.51,264.07 -224.82,399.41 -22.16,264.38 -3.1,561.2 38.09,841.5 77.2,525.45 378.58,1335.57 396.95,1612.45 46.59,702.15 -401.87,1069.36 -460.55,1918.06 v 0" /><g
         id="g74"><g
           clip-path="url(#clipPath80)"
           id="g76"><path
             id="path88"
             style="fill:url(#linearGradient86);fill-opacity:1;fill-rule:nonzero;stroke:none"
             d="m 8230.91,2322.36 c -51.05,-17.39 -71.07,-90.48 -44.75,-163.22 26.32,-72.74 89,-117.63 140.05,-100.25 51.02,17.38 71.06,90.45 44.74,163.22 -26.32,72.74 -89.02,117.63 -140.04,100.25 z m -205.85,-52.56 c -53.8,-3.59 -92.1,-68.95 -85.5,-146.06 6.57,-77.08 55.5,-136.67 109.3,-133.08 53.8,3.56 92.07,68.95 85.5,146.04 -6.57,77.08 -55.54,136.66 -109.3,133.1 z m -214.53,14 c -49.2,4.57 -93.71,-44.92 -99.47,-110.51 -5.72,-65.61 29.51,-122.5 78.71,-127.07 49.19,-4.57 93.73,44.95 99.46,110.55 5.73,65.6 -29.5,122.46 -78.7,127.03 z m 223.72,473.02 c 125.97,134.32 311.2,5.49 355.27,-133.11 35.23,-110.81 -55.13,-220.77 -170.45,-203.28 -127.57,19.38 -62.47,63.58 -191.67,-40.52 -109.36,-88.13 -241.48,0.15 -255.57,72.6 -20.82,107.22 62.97,378.35 262.42,304.31 z m 379.54,-319.21 c -42.84,-21.77 -52.9,-86.73 -22.47,-145.11 30.42,-58.39 89.77,-88.09 132.61,-66.34 42.84,21.75 52.9,86.71 22.47,145.11 -30.42,58.39 -89.8,88.07 -132.61,66.34" /></g></g><path
         id="path90"
         style="fill:none;stroke:#242324;stroke-width:6.83233976;stroke-linecap:butt;stroke-linejoin:miter;stroke-miterlimit:4;stroke-dasharray:none;stroke-opacity:1"
         d="m 8230.91,2322.36 c -51.05,-17.39 -71.07,-90.48 -44.75,-163.22 26.32,-72.74 89,-117.63 140.05,-100.25 51.02,17.38 71.06,90.45 44.74,163.22 -26.32,72.74 -89.02,117.63 -140.04,100.25 z m -205.85,-52.56 c -53.8,-3.59 -92.1,-68.95 -85.5,-146.06 6.57,-77.08 55.5,-136.67 109.3,-133.08 53.8,3.56 92.07,68.95 85.5,146.04 -6.57,77.08 -55.54,136.66 -109.3,133.1 z m -214.53,14 c -49.2,4.57 -93.71,-44.92 -99.47,-110.51 -5.72,-65.61 29.51,-122.5 78.71,-127.07 49.19,-4.57 93.73,44.95 99.46,110.55 5.73,65.6 -29.5,122.46 -78.7,127.03 z m 223.72,473.02 c 125.97,134.32 311.2,5.49 355.27,-133.11 35.23,-110.81 -55.13,-220.77 -170.45,-203.28 -127.57,19.38 -62.47,63.58 -191.67,-40.52 -109.36,-88.13 -241.48,0.15 -255.57,72.6 -20.82,107.22 62.97,378.35 262.42,304.31 z m 379.54,-319.21 c -42.84,-21.77 -52.9,-86.73 -22.47,-145.11 30.42,-58.39 89.77,-88.09 132.61,-66.34 42.84,21.75 52.9,86.71 22.47,145.11 -30.42,58.39 -89.8,88.07 -132.61,66.34 z" /><g
         id="g92"><g
           clip-path="url(#clipPath98)"
           id="g94"><path
             id="path106"
             style="fill:url(#linearGradient104);fill-opacity:1;fill-rule:nonzero;stroke:none"
             d="m 6561.56,2412.68 c 49.08,-22.38 61.75,-97.06 28.34,-166.86 -33.38,-69.76 -100.22,-108.23 -149.3,-85.84 -49.06,22.36 -61.75,97.04 -28.32,166.83 33.38,69.79 100.22,108.23 149.28,85.87 z m 199.63,-72.71 c 53.19,-8.91 84.8,-77.75 70.6,-153.82 -14.17,-76.04 -68.78,-130.5 -121.97,-121.59 -53.16,8.88 -84.78,77.75 -70.57,153.79 14.17,76.06 68.78,130.5 121.94,121.62 z m 214.87,-7.35 c 49.4,-0.34 88.8,-54 87.99,-119.83 -0.78,-65.86 -41.51,-118.96 -90.91,-118.61 -49.4,0.34 -88.8,54 -88.01,119.83 0.8,65.86 41.53,118.96 90.93,118.61 z m -175.71,492.86 c -112.05,146.15 -309.14,36.36 -366.72,-97.18 -46.05,-106.76 32.94,-225.17 149.42,-219.19 128.88,6.63 68.46,57.04 186.73,-59.35 100.07,-98.51 240.29,-23.77 261.49,46.92 31.36,104.61 -25.13,382.71 -230.92,328.8 z M 6391.02,2545.5 c 40.47,-25.89 44.03,-91.54 7.99,-146.61 -36.07,-55.1 -98.11,-78.76 -138.58,-52.87 -40.46,25.88 -44.02,91.54 -7.95,146.61 36.07,55.1 98.08,78.76 138.54,52.87 v 0" /></g></g><path
         id="path108"
         style="fill:none;stroke:#242324;stroke-width:6.83233976;stroke-linecap:butt;stroke-linejoin:miter;stroke-miterlimit:4;stroke-dasharray:none;stroke-opacity:1"
         d="m 6561.56,2412.68 c 49.08,-22.38 61.75,-97.06 28.34,-166.86 -33.38,-69.76 -100.22,-108.23 -149.3,-85.84 -49.06,22.36 -61.75,97.04 -28.32,166.83 33.38,69.79 100.22,108.23 149.28,85.87 z m 199.63,-72.71 c 53.19,-8.91 84.8,-77.75 70.6,-153.82 -14.17,-76.04 -68.78,-130.5 -121.97,-121.59 -53.16,8.88 -84.78,77.75 -70.57,153.79 14.17,76.06 68.78,130.5 121.94,121.62 z m 214.87,-7.35 c 49.4,-0.34 88.8,-54 87.99,-119.83 -0.78,-65.86 -41.51,-118.96 -90.91,-118.61 -49.4,0.34 -88.8,54 -88.01,119.83 0.8,65.86 41.53,118.96 90.93,118.61 z m -175.71,492.86 c -112.05,146.15 -309.14,36.36 -366.72,-97.18 -46.05,-106.76 32.94,-225.17 149.42,-219.19 128.88,6.63 68.46,57.04 186.73,-59.35 100.07,-98.51 240.29,-23.77 261.49,46.92 31.36,104.61 -25.13,382.71 -230.92,328.8 z M 6391.02,2545.5 c 40.47,-25.89 44.03,-91.54 7.99,-146.61 -36.07,-55.1 -98.11,-78.76 -138.58,-52.87 -40.46,25.88 -44.02,91.54 -7.95,146.61 36.07,55.1 98.08,78.76 138.54,52.87 z" /><g
         id="g110"><g
           clip-path="url(#clipPath116)"
           id="g112"><path
             id="path124"
             style="fill:url(#linearGradient122);fill-opacity:1;fill-rule:nonzero;stroke:none"
             d="m 7503.65,5961.19 c 445.14,0 806.01,-271.5 806.01,-606.41 0,-334.9 -360.87,-606.41 -806.01,-606.41 -445.13,0 -805.98,271.51 -805.98,606.41 0,334.91 360.85,606.41 805.98,606.41" /></g></g><path
         id="path126"
         style="fill:#050301;fill-opacity:1;fill-rule:nonzero;stroke:none"
         d="m 7980.05,10243.4 c 128.31,-130.6 103.43,-505.9 93.14,-677.82 -27.94,-465.44 -199,-903.02 -351.83,-1308.41 169.58,158.96 339.19,317.93 508.79,476.92 57.94,126.05 53.02,310 73.01,476.83 11.83,98.69 60.71,171.37 59.52,276.8 -1.45,133.62 -56.89,270.43 -78.84,404.67 -17.99,110.21 -67.43,296.81 44.19,389.01 179.73,62 455.06,352.4 311.85,541.4 6.14,70.2 -30.94,110.2 -58.57,127.4 -18.6,13 8.68,-61.7 -28.28,-101.7 -26.93,5 -50.73,-3.3 -90.39,-22.2 -2,56.4 -55.71,100.2 -103.32,120.1 -3.38,40.9 -31.75,98.6 -57.81,122.9 -23.28,21.7 9.28,-12 -6.16,-118.5 -44.72,-14 -122.06,-46.4 -145.72,-104.9 -23.05,44.7 -75.2,94.2 -130.62,98.1 -13.07,26 -11.74,52.6 -8.33,83 2.55,22.8 11.95,47.6 -13.91,24.8 -21.81,-19.1 -47.43,-62.9 -50.3,-112.2 -86.48,-15.9 -163.5,-95.9 -162.52,-166 -40.93,40.2 -79.8,51 -143.06,48.8 -55.5,59.4 -56.02,100.6 -41.27,143.3 10.65,30.9 26.29,54.9 -8.85,18.4 -68.09,-70.9 -71.64,-161.9 -64.15,-216.5 -29.73,-53.2 -24.04,-118.2 3.15,-185.1 85.53,-210.3 260.6,-316 450.28,-339.1 v 0" /><g
         id="g128"><g
           clip-path="url(#clipPath134)"
           id="g130"><path
             id="path142"
             style="fill:url(#linearGradient140);fill-opacity:1;fill-rule:nonzero;stroke:none"
             d="m 7660.39,10813.7 c 74.33,0 134.61,-50.5 134.61,-112.8 0,-62.3 -60.28,-112.8 -134.61,-112.8 -74.36,0 -134.64,50.5 -134.64,112.8 0,62.3 60.28,112.8 134.64,112.8" /></g></g><g
         id="g144"><g
           clip-path="url(#clipPath150)"
           id="g146"><path
             id="path158"
             style="fill:url(#linearGradient156);fill-opacity:1;fill-rule:nonzero;stroke:none"
             d="m 8557.19,10840.4 c 62.85,0 113.81,-54.7 113.81,-122.3 0,-67.6 -50.96,-122.3 -113.81,-122.3 -62.85,0 -113.81,54.7 -113.81,122.3 0,67.6 50.96,122.3 113.81,122.3" /></g></g><g
         id="g160"><g
           clip-path="url(#clipPath166)"
           id="g162"><path
             id="path174"
             style="fill:url(#linearGradient172);fill-opacity:1;fill-rule:nonzero;stroke:none"
             d="m 7979.16,10932.2 c 88.79,0 160.75,-59.9 160.75,-133.8 0,-73.9 -71.96,-133.8 -160.75,-133.8 -88.8,0 -160.76,59.9 -160.76,133.8 0,73.9 71.96,133.8 160.76,133.8 v 0" /></g></g><g
         id="g176"><g
           clip-path="url(#clipPath182)"
           id="g178"><path
             id="path190"
             style="fill:url(#linearGradient188);fill-opacity:1;fill-rule:nonzero;stroke:none"
             d="m 8307.93,10936 c 80.78,0 146.29,-59.9 146.29,-133.8 0,-73.9 -65.51,-133.8 -146.29,-133.8 -80.81,0 -146.32,59.9 -146.32,133.8 0,73.9 65.51,133.8 146.32,133.8" /></g></g><path
         id="path192"
         style="fill:#050301;fill-opacity:1;fill-rule:nonzero;stroke:none"
         d="m 7022.11,10250.5 c -136.61,-123.5 -110.98,-509.79 -100.48,-684.89 27.94,-465.44 198.99,-903.05 351.82,-1308.44 -169.58,158.99 -339.18,317.96 -508.79,476.92 -57.94,126.05 -53.02,310.03 -73,476.86 -11.84,98.69 -60.71,171.37 -59.53,276.8 1.48,133.59 56.92,270.4 78.85,404.64 16.97,103.95 61.89,275.91 -26.76,372.41 -163.74,42.5 -316.1,139.8 -373.34,317.1 -23.86,73.9 -21.7,148.1 20.85,210.3 -13.36,81.7 9.26,133.2 44.14,158 18.57,13 -8.68,-61.7 28.29,-101.7 26.92,5 50.7,-3.3 90.38,-22.2 2,56.4 55.68,100.2 103.32,120.1 3.35,40.9 31.73,98.6 57.81,122.9 23.29,21.7 -9.28,-11.9 6.13,-118.5 44.72,-14 122.06,-46.4 145.72,-104.8 23.09,44.6 75.2,94.1 130.65,98 13.04,26 11.71,52.7 8.33,83 -2.55,22.8 -11.97,47.6 13.88,24.8 21.84,-19.1 47.47,-62.8 50.3,-112.2 86.51,-15.9 163.5,-95.9 162.55,-166 40.9,40.2 79.8,51 143.06,48.9 55.47,59.3 56.02,100.5 41.24,143.2 -10.64,30.9 -26.26,54.9 8.85,18.4 68.09,-70.9 71.65,-161.9 64.18,-216.5 29.71,-53.2 24.04,-118.2 -3.18,-185.1 -78.7,-193.5 -233.27,-298.5 -405.27,-332 v 0" /><g
         id="g194"><g
           clip-path="url(#clipPath200)"
           id="g196"><path
             id="path208"
             style="fill:url(#linearGradient206);fill-opacity:1;fill-rule:nonzero;stroke:none"
             d="m 6427.5,10836.6 c 51.86,0 93.91,-40.2 93.91,-89.8 0,-49.6 -42.05,-89.9 -93.91,-89.9 -51.89,0 -93.95,40.3 -93.95,89.9 0,49.6 42.06,89.8 93.95,89.8 v 0" /></g></g><g
         id="g210"><g
           clip-path="url(#clipPath216)"
           id="g212"><path
             id="path224"
             style="fill:url(#linearGradient222);fill-opacity:1;fill-rule:nonzero;stroke:none"
             d="m 6644.25,10936 c 63.86,0 115.61,-40.2 115.61,-89.8 0,-49.6 -51.75,-89.9 -115.61,-89.9 -63.84,0 -115.61,40.3 -115.61,89.9 0,49.6 51.77,89.8 115.61,89.8" /></g></g><g
         id="g226"><g
           clip-path="url(#clipPath232)"
           id="g228"><path
             id="path240"
             style="fill:url(#linearGradient238);fill-opacity:1;fill-rule:nonzero;stroke:none"
             d="m 6976.64,10932.2 c 75.84,0 137.3,-44.5 137.3,-99.4 0,-54.9 -61.46,-99.4 -137.3,-99.4 -75.81,0 -137.27,44.5 -137.27,99.4 0,54.9 61.46,99.4 137.27,99.4 v 0" /></g></g><g
         id="g242"><g
           clip-path="url(#clipPath248)"
           id="g244"><path
             id="path256"
             style="fill:url(#linearGradient254);fill-opacity:1;fill-rule:nonzero;stroke:none"
             d="m 7294.57,10809.8 c 77.8,0 140.88,-48.7 140.88,-108.9 0,-60.2 -63.08,-109 -140.88,-109 -77.84,0 -140.92,48.8 -140.92,109 0,60.2 63.08,108.9 140.92,108.9" /></g></g><g
         id="g258"><g
           clip-path="url(#clipPath264)"
           id="g260"><path
             id="path272"
             style="fill:url(#linearGradient270);fill-opacity:1;fill-rule:nonzero;stroke:none"
             d="m 6421.36,12154.2 v 0.1 z m -11.04,-233.5 c -10.18,-234 -36.68,-702.1 -36.68,-702.1 -2.14,-27.3 -15.16,-266.4 -2.89,-280.8 31.55,74.7 21.46,216 23.11,291.9 4.1,229.1 18.83,687.2 18.83,687.2 l 8.67,244 -11.04,-240.2" /></g></g><g
         id="g274"><g
           clip-path="url(#clipPath280)"
           id="g276"><path
             id="path288"
             style="fill:url(#linearGradient286);fill-opacity:1;fill-rule:nonzero;stroke:none"
             d="m 6635.71,11991 c 5.18,-241.1 9.41,-723.5 9.41,-723.5 -0.35,-28.7 1.91,-274.1 15.53,-289.3 27.04,78 7.31,221.8 3.96,300.9 -10.93,236 -26.29,708.1 -26.29,708.1 -2.43,83.8 -7.32,251.5 -7.32,251.5 1.56,-82.6 4.71,-247.7 4.71,-247.7" /></g></g><g
         id="g290"><g
           clip-path="url(#clipPath296)"
           id="g292"><path
             id="path304"
             style="fill:url(#linearGradient302);fill-opacity:1;fill-rule:nonzero;stroke:none"
             d="m 6934.76,11977.5 c 4.8,-239.2 8.24,-717.7 8.24,-717.7 -0.37,-28.2 1.62,-272 15.1,-286.9 27.07,77 7.63,220.3 4.42,298.4 -10.56,234.1 -25.16,702.4 -25.16,702.4 -2.31,83.1 -6.91,249.4 -6.91,249.4 1.44,-81.8 4.31,-245.6 4.31,-245.6" /></g></g><g
         id="g306"><g
           clip-path="url(#clipPath312)"
           id="g308"><path
             id="path320"
             style="fill:url(#linearGradient318);fill-opacity:1;fill-rule:nonzero;stroke:none"
             d="m 7306.05,11899.4 c 16.43,-224.3 43.18,-673.2 43.18,-673.2 0.98,-25.9 -24.78,-203 0.81,-227.2 22.62,70.6 24.99,166.7 18.14,238.1 -21.96,219.6 -59.33,658.8 -59.33,658.8 -6.36,78 -19.08,234 -19.08,234 5.43,-76.8 16.28,-230.5 16.28,-230.5 v 0" /></g></g><g
         id="g322"><g
           clip-path="url(#clipPath328)"
           id="g324"><path
             id="path336"
             style="fill:url(#linearGradient334);fill-opacity:1;fill-rule:nonzero;stroke:none"
             d="m 7662.7,11984.3 c -13.91,-232.9 -47.69,-698.8 -47.69,-698.8 -2.52,-27.2 -22.01,-286 -10.44,-300.4 31.73,73.9 27.27,236.3 30.16,311.4 7.96,228 30.2,684 30.2,684 4.22,81 12.64,243 12.64,243 -4.94,-79.8 -14.87,-239.2 -14.87,-239.2 v 0" /></g></g><g
         id="g338"><g
           clip-path="url(#clipPath344)"
           id="g340"><path
             id="path352"
             style="fill:url(#linearGradient350);fill-opacity:1;fill-rule:nonzero;stroke:none"
             d="m 7927.82,12050.4 c 18.91,-244.2 50.79,-732.6 50.79,-732.6 1.33,-29.2 17.41,-277.3 31.67,-292.9 21.75,79.6 -5.7,224.4 -13.54,304.8 -24.15,238.9 -66.18,716.8 -66.18,716.8 -7.2,84.9 -21.57,254.6 -21.57,254.6 6.28,-83.6 18.83,-250.7 18.83,-250.7" /></g></g><g
         id="g354"><g
           clip-path="url(#clipPath360)"
           id="g356"><path
             id="path368"
             style="fill:url(#linearGradient366);fill-opacity:1;fill-rule:nonzero;stroke:none"
             d="m 8146.91,12043.1 c 35.14,-241.2 99.47,-723.7 99.47,-723.7 3.24,-28.6 36.1,-274.2 51.14,-289.2 16.31,78.7 -20.63,221.9 -33.79,301.1 -40.03,236 -113.81,708 -113.81,708 -12.84,83.8 -38.5,251.4 -38.5,251.4 11.83,-82.5 35.49,-247.6 35.49,-247.6" /></g></g><g
         id="g370"><g
           clip-path="url(#clipPath376)"
           id="g372"><path
             id="path384"
             style="fill:url(#linearGradient382);fill-opacity:1;fill-rule:nonzero;stroke:none"
             d="m 8445.95,11981 c 30.6,-235.9 85.88,-708.1 85.88,-708.1 2.72,-27.8 34.99,-308.2 49.48,-322.7 17.68,76 -20.36,257.7 -31.9,334.3 -35.6,230.9 -100.51,692.8 -100.51,692.8 -11.28,82.1 -33.78,246.1 -33.78,246.1 10.27,-80.8 30.83,-242.4 30.83,-242.4 v 0" /></g></g><path
         id="path386"
         style="fill:#050301;fill-opacity:1;fill-rule:nonzero;stroke:none"
         d="m 7492.63,7721.04 c 722.69,0 1308.56,410.98 1308.56,917.95 0,343.99 -269.74,643.75 -668.94,800.95 -41.97,16.54 -56.58,17.09 -2.03,11.31 333.43,-35.32 570.17,1.93 886.33,92.32 189.66,54.2 15.65,17.64 -59.98,-0.17 -306.16,-72.14 -600.05,-112.54 -970.99,-29.39 -31.44,7.06 -37.46,12.01 1.59,11.92 385.32,-0.96 935.44,215.33 1203.42,392.43 148.81,101.94 207.52,145.84 27.16,30.17 -22.42,-14.38 -46.95,-28.96 -73.15,-43.53 -339.65,-189.05 -973.19,-387.17 -1227.8,-345.7 -29.71,4.84 -29.71,10.1 1.27,15.74 272,49.75 734.57,173.22 926.42,333.86 44.6,37.34 1.59,6.57 -17.76,-4.83 -245.82,-144.93 -675.85,-265 -935.59,-292.62 -19.41,-2.08 -57.12,-9.97 -15.7,3.82 515.24,171.61 706.28,314.14 757.56,379.62 31.38,40.11 -8.21,1.91 -21.03,-7.78 -135.24,-102.36 -480.39,-274.05 -800.25,-348.93 -25.74,-6.02 -19.9,-7.26 -43.33,4.39 -77.34,38.41 -164.95,67.72 -261.24,68.18 -103.45,0.49 -195.72,-25.89 -276.04,-61.78 -25.25,-11.28 -20.65,-14.2 -47.61,-8.27 -319.75,70.48 -670.54,242.46 -814.54,347.89 -12.79,9.37 -62.51,56.61 -29.59,14.31 50.38,-64.73 238.09,-205.38 743.33,-375.13 57.41,-19.27 20.42,-11.25 -15.07,-7.15 -259.61,30.17 -675.91,147.51 -917.97,288.92 -18.57,10.82 -68.12,46.02 -21.38,6.91 97.04,-81.19 263.18,-152.89 438.92,-210.36 175.71,-57.44 361.02,-100.71 496.32,-125.04 39.77,-7.14 29.82,-7.75 -4.82,-13.67 -252.8,-43.39 -889.75,155.55 -1230.64,345.25 -26.21,14.58 -50.74,29.16 -73.15,43.53 -180.37,115.64 -121.65,71.74 27.16,-30.16 269.86,-178.32 825.77,-396.4 1211.43,-392.38 56.2,0.58 37.4,-2.11 -5.67,-11.8 -371.32,-83.39 -665.41,-42.95 -971.77,29.21 -75.61,17.82 -249.61,54.38 -59.96,0.18 331.18,-94.67 575.2,-131.06 934.49,-86.8 60.45,7.43 33.96,2.22 -2.4,-11.08 -418.46,-153.12 -704.14,-460.35 -704.14,-814.34 0,-506.97 585.87,-917.95 1308.58,-917.95 v 0" /><path
         id="path388"
         style="fill:#ffffff;fill-opacity:1;fill-rule:nonzero;stroke:none"
         d="m 6923.13,9466.98 c -0.09,0.72 -2.02,0.06 -6.51,-1.16 4.11,0.32 6.65,-0.17 6.51,1.16 z m -806.97,462.11 c -2.51,2.37 -4.16,3.82 -4.71,3.1 v -0.03 l -0.06,-0.06 c -0.29,-0.55 1.39,-1.13 4.77,-3.01 z m 1740.62,-321.43 3.21,1.05 c 0.26,-0.84 1.71,-0.29 4.02,0.66 -2.86,-0.17 -4.16,0.03 -4.02,-0.6 v -0.04 z m 1000.52,314.2 c 3.07,1.65 4.51,2.14 4.11,2.72 -0.61,0.78 -2,-0.52 -4.11,-2.72 z M 7898,9566.71 v 0 l 0.02,-0.06 v 0.03 z m 0,0.03 v -0.03 0.06 -0.06 c 0,-0.14 0.02,-0.12 0.02,-0.06 l 0.09,-0.14 v 0.03 l -0.09,0.14 v 0 l -0.02,0.06 z m 0,0.03 v 0 l -0.09,0.14 v -0.03 z m -0.09,0.11 v 0.03 l -1.19,2.26 z m 196.85,-112.65 3.3,0.66 c 0.17,-0.98 1.62,-0.52 4.46,-0.84 -3.16,1.65 -4.72,2.66 -4.49,1.01 l 0.03,-0.17 -3.3,-0.66 z m 325.02,-1467.29 c -237.35,-166.49 -565.14,-269.46 -927.15,-269.46 -362.03,0 -689.82,102.97 -927.14,269.46 -237.75,166.77 -384.8,397.29 -384.8,652.02 0,174.93 69.36,338.46 189.8,477.76 124.4,143.86 303.32,261.9 516.6,339.96 6.91,2.52 13.45,4.75 19.12,6.66 -4.17,-0.84 -9.23,-1.71 -15.25,-2.46 -179.87,-22.16 -330.91,-24.12 -478.48,-8.71 -147.56,15.45 -291.52,48.25 -457.25,95.6 -45.58,13.04 -70.25,20.85 -80.37,24.96 -16.26,6.59 -15.77,9.83 -2.95,10.49 3.03,0.15 9.74,-0.69 18.88,-2.19 30.63,-5.12 89.66,-17.99 125.99,-26.56 153.01,-36.03 302.95,-64.15 460.99,-72.85 157.94,-8.68 324.03,2.02 509.37,43.67 4.02,0.9 8.7,1.94 13.1,2.89 15.15,3.36 24.87,2.43 24.87,3.96 -0.02,1.25 -9.22,-1.82 -31.58,-2.05 -176.87,-1.85 -389.42,42.89 -593.8,109.1 -242.06,78.38 -472.75,186.88 -619.31,283.71 l -0.17,0.12 1.82,2.98 -1.82,-2.98 c -60.97,41.76 -106.85,73.78 -127.32,89.08 -6.51,4.9 -10.68,8.2 -12.15,9.9 -0.17,0.2 -0.32,0.4 -0.47,0.6 l 2.78,2 -2.78,-2 c -4.31,6.7 -3.09,8.8 4.17,5.7 0.03,0.1 0.06,0 0.11,0 2.29,-1 5.15,-2.5 8.6,-4.4 14.31,-8.2 47.31,-28.72 103.45,-64.73 10.97,-7.03 22.65,-14.23 34.97,-21.58 12.27,-7.29 24.96,-14.57 38.01,-21.83 178.43,-99.33 438.16,-201.17 681.32,-269.4 220.6,-61.86 427.4,-96.08 547.23,-75.52 l 7,1.19 c 13.08,2.2 20.69,1.97 20.8,2.75 0.17,1.01 -7.06,-0.09 -22.99,2.77 -72.75,13.08 -159.84,31.59 -252.07,54.84 -79.57,20.05 -163.13,43.65 -244.7,70.32 -93.62,30.6 -184.53,65.25 -263.72,103.2 -69.82,33.46 -130.62,69.53 -176.26,107.74 -9.49,7.92 -15.21,13.48 -18.08,17.24 -0.49,0.11 -0.98,0.34 -1.42,0.69 -1.44,1.21 -1.7,3.44 -0.55,4.97 v 0.03 -0.03 c 2.49,3.27 14.21,-4.28 26.41,-12.17 6.83,-4.4 13.8,-8.91 18.69,-11.75 113.78,-66.49 266.21,-127.67 422.71,-176.89 175.86,-55.36 356.83,-95.65 493.99,-111.59 7.03,-0.84 14.55,-1.85 21.26,-2.77 11.6,-1.59 19.55,-6.02 20.07,-4.46 v 0.03 l 0.03,-0.03 c 0.29,1.1 -7.95,0.84 -27.65,7.46 -210.16,70.6 -365.45,136.2 -478.77,193.39 -159.72,80.58 -236.45,144.76 -266.13,182.83 -10.52,13.6 -12.93,20.1 -10.47,22.2 3.7,3.2 17.73,-8.8 30.06,-19.3 5.92,-5.08 11.42,-9.77 14.48,-12.02 78.85,-57.73 219.97,-135.51 384.02,-205.59 134.9,-57.59 285.28,-110 429.32,-141.72 20.12,-4.46 21.66,-3.68 32.85,1.94 3.24,1.61 7.23,3.64 12.75,6.1 40.35,18.04 83.68,33.67 129.93,44.74 46.25,11.08 95.45,17.59 147.45,17.33 48.45,-0.23 94.7,-7.73 138.55,-19.96 43.7,-12.23 85.06,-29.18 123.82,-48.45 l 0.26,-0.11 v 0 l 5.26,-2.63 c 7.41,-3.74 10.97,-5.53 14.17,-5.85 2.96,-0.29 6.4,0.55 12.96,2.2 2.17,0.55 4.77,1.22 8.8,2.14 144.47,33.81 294.12,87.44 427.22,145.46 161.14,70.25 297.92,146.96 371.82,202.9 3,2.28 7.6,6.22 12.37,10.32 7.29,6.3 14.96,12.9 19.96,15 1.22,1.3 3.15,1.3 4.45,0.2 l -2.13,-2.8 2.13,2.8 c 2.41,-2.1 -0.14,-8.7 -11.25,-22.86 -30.19,-38.59 -108.34,-103.61 -271.24,-185.23 -114.39,-57.32 -270.72,-122.95 -481.81,-193.5 2.93,0.41 5.76,0.79 8.3,1.04 137.3,14.61 322.3,55.1 502.46,111.44 160.12,50.07 316.37,112.69 431.83,180.75 4.92,2.92 11.6,7.2 17.91,11.28 11.1,7.17 21.25,13.68 23.6,10.53 1.73,-2.32 -3.33,-8.82 -20.08,-22.85 -82.34,-68.96 -214.2,-131.03 -359.46,-183.38 -194.25,-69.99 -412.62,-122.69 -568.46,-151.18 -9.08,-1.68 -15.33,-3.24 -18.74,-4.72 3.26,-1.32 9.08,-2.66 17.41,-4.02 120.78,-19.66 327.5,14.87 547.58,76.83 242.23,68.2 500.49,169.6 678.17,268.46 13.04,7.26 25.71,14.55 37.98,21.84 12.32,7.35 24.03,14.58 34.99,21.58 56.14,36.01 89.14,56.59 103.46,64.69 3.44,2 6.31,3.5 8.59,4.4 0.06,0.1 0.09,0.1 0.12,0.1 7.26,3.1 8.47,1 4.13,-5.7 -0.89,-1.5 -5.23,-5.1 -12.58,-10.5 -20.45,-15.3 -66.23,-47.29 -127.12,-88.97 l -0.26,-0.21 -1.76,3.01 1.76,-3.01 c -145.4,-96.08 -373.66,-203.65 -613.67,-281.91 -203.07,-66.21 -414.59,-111.48 -591.51,-111.04 -7.81,0.03 -13.77,-0.14 -17.99,-0.52 4.13,-1.3 9.83,-2.75 16.86,-4.34 l 0.23,-0.03 -0.69,-3.47 0.69,3.47 c 185.17,-41.53 351.11,-52.21 508.94,-43.5 157.89,8.73 307.75,36.82 460.63,72.83 36.36,8.56 95.39,21.46 126.02,26.55 9.14,1.53 15.85,2.37 18.89,2.2 12.81,-0.67 13.28,-3.9 -2.95,-10.5 -10.12,-4.08 -34.79,-11.92 -80.41,-24.93 -158.21,-45.24 -296.58,-77.17 -437.18,-93.4 -140.59,-16.22 -283.36,-16.71 -450.33,0.96 l -11.43,1.24 c 4.46,-1.64 9.46,-3.53 14.98,-5.7 203.57,-80.17 373.61,-197.37 491.59,-338.63 114.1,-136.64 179.53,-295.74 179.53,-465.64 0,-254.73 -147.05,-485.25 -384.8,-652.02 z M 7492.63,7724.6 c 360.68,0 687.17,102.51 923.44,268.24 235.88,165.47 381.77,393.91 381.77,646.12 0,168.1 -64.79,325.62 -177.82,460.98 -117.26,140.37 -286.38,256.9 -488.93,336.67 -10.55,4.17 -19.46,7.32 -25.91,9.63 -8.39,2.98 -13.2,4.69 -13.68,7.32 h -0.04 v 0 c -0.02,0.14 -0.02,0.32 -0.05,0.46 -0.06,0.61 0.03,1.13 0.26,1.57 0.4,1.07 1.33,1.9 2.46,2.14 0.66,0.11 1.3,0.06 1.88,-0.18 4.33,0.43 11.88,-0.37 22.96,-1.56 l 11.57,-1.24 c 166.46,-17.62 308.79,-17.16 448.95,-0.96 140.17,16.17 278.24,48.04 436.2,93.19 28.2,8.07 48.33,14.09 61.89,18.48 -31.58,-5.55 -86.01,-17.46 -120.29,-25.53 -153.24,-36.1 -303.43,-64.27 -461.74,-73.01 -158.38,-8.73 -324.89,1.97 -510.67,43.62 v 0 l -0.23,0.06 c -11.83,2.66 -20.19,5.06 -24.03,7.06 -2.67,1.36 -4.05,3.09 -4.05,5.14 0,2.4 1.53,4.08 4.74,5.01 3.87,1.07 12.23,1.67 25.86,1.65 176.2,-0.44 387.05,44.68 589.54,110.72 239.43,78.06 467.12,185.37 612.08,281.16 v 0 l 0.18,0.12 c 33,22.59 61.55,42.34 84.05,58.1 -14.75,-9.28 -32.54,-20.59 -53.54,-34.07 -11.42,-7.32 -23.16,-14.58 -35.2,-21.72 -12.17,-7.26 -24.9,-14.58 -38.12,-21.93 -178.11,-99.11 -436.92,-200.72 -679.61,-269.07 -220.86,-62.16 -428.53,-96.81 -550.27,-76.99 -10.65,1.73 -17.73,3.58 -21.17,5.55 -2.55,1.45 -3.79,3.3 -3.79,5.49 0.02,2.14 1.3,3.97 3.79,5.44 v 0 c 0.11,0.09 0.23,0.15 0.34,0.18 3.73,2.05 11.05,4.08 22.04,6.07 155.58,28.46 373.55,81.04 567.42,150.92 138.57,49.95 264.77,108.67 346.94,173.66 -1.21,-0.75 -2.4,-1.48 -3.5,-2.11 -115.92,-68.35 -272.66,-131.17 -433.19,-181.38 -180.54,-56.46 -366,-97.04 -503.7,-111.71 -4.51,-0.46 -10.15,-1.26 -15.5,-2.05 -11.11,-1.62 -21.21,-3.09 -22.36,0.75 v 0 c -0.55,1.89 0.43,3.88 2.2,4.46 0.34,0.11 0.72,0.17 1.07,0.17 3.18,2.06 8.82,4.51 17.55,7.44 213.87,71.21 371.79,137.41 487.04,195.14 161.83,81.1 239.2,145.34 268.97,183.35 7.95,10.15 12.84,12.25 12.14,12.85 h -0.02 v 0 c -0.96,0.7 -7.87,-8.3 -15.91,-15.2 -4.89,-4.16 -9.58,-8.21 -12.73,-10.58 -74.25,-56.2 -211.55,-133.22 -373.14,-203.68 -133.39,-58.16 -283.45,-111.9 -428.33,-145.83 -2.83,-0.67 -6.01,-1.45 -8.73,-2.11 -7.23,-1.83 -11.02,-2.78 -15.1,-2.35 -4.4,0.44 -8.31,2.41 -16.37,6.48 l -5.27,2.63 h -0.02 l -0.24,0.12 c -38.44,19.09 -79.39,35.9 -122.69,47.98 -43.36,12.12 -89.06,19.53 -136.87,19.76 -51.45,0.23 -100.13,-6.22 -145.94,-17.18 -45.85,-10.96 -88.83,-26.47 -128.8,-44.34 -5.18,-2.31 -9.23,-4.34 -12.5,-5.99 -12.95,-6.53 -14.75,-7.4 -37.11,-2.49 -144.44,31.85 -295.19,84.37 -430.41,142.1 -164.51,70.29 -306.12,148.36 -385.32,206.34 -3.35,2.44 -8.9,7.21 -14.89,12.33 -10.32,8.81 -21.05,19.81 -21.61,19.41 -0.66,-0.6 3.94,-2.7 11.4,-12.3 29.18,-37.48 105.14,-100.85 263.81,-180.91 113.12,-57.1 268.12,-122.55 477.93,-193.04 24.33,-8.15 32.98,-13.01 31.99,-16.34 v -0.03 c -0.55,-1.82 -2.4,-2.86 -4.16,-2.32 -4.77,-0.63 -13.19,0.53 -23.14,1.89 -6.45,0.89 -13.62,1.88 -21.15,2.74 -137.5,15.97 -318.91,56.37 -495.16,111.85 -156.95,49.4 -309.83,110.75 -424.05,177.47 -2.29,1.34 -5.04,3.04 -8.01,4.92 43.96,-34.88 100.65,-68.03 165.21,-98.94 78.99,-37.87 169.6,-72.4 262.94,-102.91 81.25,-26.59 164.66,-50.13 244.29,-70.2 92.18,-23.23 179.12,-41.71 251.6,-54.73 20.57,-3.7 29.22,-6.56 28.52,-10.93 -0.69,-4.22 -10.32,-5.87 -26.38,-8.59 l -7,-1.19 c -120.78,-20.7 -328.6,13.57 -549.98,75.7 -243.62,68.35 -503.87,170.42 -682.73,269.94 -13.22,7.35 -25.95,14.7 -38.16,21.93 -12.03,7.17 -23.77,14.4 -35.16,21.72 -21,13.48 -38.76,24.76 -53.52,34.07 22.54,-15.79 51.11,-35.57 84.17,-58.2 v 0 l 0.06,-0.02 v 0 l 0.09,-0.06 c 146.12,-96.55 376.23,-204.78 617.69,-282.96 203.79,-66.03 415.63,-110.63 591.8,-108.81 27.07,0.29 38.27,-1.04 38.33,-4.97 0.02,-4.26 -11.78,-6.86 -30.2,-10.94 -3.7,-0.81 -7.78,-1.7 -13.07,-2.89 -185.95,-41.77 -352.61,-52.53 -511.11,-43.79 -158.44,8.71 -308.73,36.88 -462.08,73 -34.25,8.07 -88.71,20.02 -120.3,25.57 13.57,-4.4 33.7,-10.44 61.93,-18.51 165.41,-47.29 309.08,-80 456.15,-95.39 147.08,-15.36 297.68,-13.39 477.09,8.7 28.18,3.48 39.17,3.59 39.57,-0.17 0.41,-3.73 -7.14,-6.3 -18.57,-10.15 -6.25,-2.11 -13.88,-4.66 -21.95,-7.64 -212.24,-77.66 -390.21,-195.03 -513.83,-338.02 -119.33,-138 -188.03,-299.88 -188.03,-472.99 0,-252.21 145.89,-480.65 381.76,-646.12 236.28,-165.73 562.77,-268.24 923.45,-268.24 h 0.02" /><g
         id="g390"><g
           clip-path="url(#clipPath396)"
           id="g392"><path
             id="path404"
             style="fill:url(#linearGradient402);fill-opacity:1;fill-rule:nonzero;stroke:none"
             d="m 7511.84,8322.86 c 385.78,0 698.53,-122.35 698.53,-273.25 0,-150.89 -312.75,-273.23 -698.53,-273.23 -385.81,0 -698.56,122.34 -698.56,273.23 0,150.9 312.75,273.25 698.56,273.25" /></g></g><g
         id="g406"><g
           clip-path="url(#clipPath412)"
           id="g408"><path
             id="path420"
             style="fill:url(#linearGradient418);fill-opacity:1;fill-rule:nonzero;stroke:none"
             d="m 7507.21,9701.23 c 38.76,0 103.37,-54 103.37,-79.48 0,-25.48 -37.71,-26.14 -106.35,-26.14 -68.63,0 -112.34,3.98 -112.34,29.47 0,25.48 67.63,76.15 115.32,76.15 v 0" /></g></g><path
         id="path422"
         style="fill:#fcdce1;fill-opacity:1;fill-rule:nonzero;stroke:none"
         d="m 7508.6,9637.92 c 31.79,0 84.8,-13.62 84.8,-20.07 0,-6.42 -30.95,-6.6 -87.26,-6.6 -56.34,0 -92.21,1.01 -92.21,7.43 0,6.45 55.51,19.24 94.67,19.24" /><path
         id="path424"
         style="fill:#050301;fill-opacity:1;fill-rule:nonzero;stroke:none"
         d="m 6535.79,8561.21 c 164.77,-133.8 329.58,-267.6 494.36,-401.4 -89.09,-119.02 -178.14,-238.04 -267.23,-357.03 -310.2,-414.5 -247.87,-395.7 -237.31,190.63 3.38,189.25 6.77,378.53 10.18,567.8 v 0" /><g
         id="g426"><g
           clip-path="url(#clipPath432)"
           id="g428"><path
             id="path440"
             style="fill:url(#linearGradient438);fill-opacity:1;fill-rule:nonzero;stroke:none"
             d="m 6640.23,8371.07 c 60.82,-63.49 137.65,-129.49 247.18,-200.7 -44.54,-59.53 -89.05,-119.02 -133.6,-178.55 -155.11,-207.23 -123.93,-197.83 -118.67,95.34 1.7,94.63 3.38,189.27 5.09,283.91 v 0" /></g></g><path
         id="path442"
         style="fill:#050301;fill-opacity:1;fill-rule:nonzero;stroke:none"
         d="m 8482.63,8574.14 c -164.81,-133.8 -329.59,-267.57 -494.39,-401.37 89.08,-119.02 178.17,-238.07 267.25,-357.06 310.18,-414.5 247.85,-395.7 237.32,190.63 -3.38,189.28 -6.8,378.55 -10.18,567.8" /><g
         id="g444"><g
           clip-path="url(#clipPath450)"
           id="g446"><path
             id="path458"
             style="fill:url(#linearGradient456);fill-opacity:1;fill-rule:nonzero;stroke:none"
             d="m 8378.16,8384 c -60.8,-63.46 -137.62,-129.49 -247.18,-200.7 44.54,-59.5 89.08,-119.02 133.62,-178.52 155.09,-207.26 123.94,-197.87 118.67,95.31 -1.7,94.63 -3.41,189.27 -5.11,283.91 v 0" /></g></g><g
         id="g460"><g
           clip-path="url(#clipPath466)"
           id="g462"><path
             id="path474"
             style="fill:url(#linearGradient472);fill-opacity:1;fill-rule:nonzero;stroke:none"
             d="m 7096.04,8776.87 c 207.23,26.86 359.11,187.62 339.27,359.08 -19.85,171.49 -203.88,288.71 -411.12,261.87 -207.21,-26.84 -359.09,-187.62 -339.24,-359.08 19.81,-171.49 203.88,-288.72 411.09,-261.87 v 0" /></g></g><g
         id="g476"><g
           clip-path="url(#clipPath482)"
           id="g478"><path
             id="path494"
             style="fill:url(#radialGradient492);fill-opacity:1;fill-rule:nonzero;stroke:none"
             d="m 7093.43,8799.51 c 193.93,25.11 336.21,174.35 317.81,333.35 -18.39,158.96 -190.49,267.48 -384.42,242.35 -193.93,-25.14 -336.21,-174.38 -317.81,-333.35 18.37,-158.99 190.49,-267.48 384.42,-242.35" /></g></g><path
         id="path496"
         style="fill:#050301;fill-opacity:1;fill-rule:nonzero;stroke:none"
         d="m 7126.55,9191.57 c 26.58,-4.71 55.1,21.03 63.72,57.44 8.59,36.42 -5.99,69.77 -32.6,74.48 -26.58,4.72 -55.1,-21 -63.69,-57.44 -8.59,-36.41 5.99,-69.76 32.57,-74.48" /><path
         id="path498"
         style="fill:#ffffff;fill-opacity:1;fill-rule:nonzero;stroke:none"
         d="m 7093.14,9279.36 c 13.19,-3.62 26.67,4.77 30.08,18.71 3.42,13.94 -4.54,28.2 -17.73,31.81 -13.19,3.62 -26.67,-4.77 -30.08,-18.74 -3.38,-13.94 4.54,-28.17 17.73,-31.78 z m 29.1,-21.96 c 6.83,-1.88 13.82,2.46 15.59,9.69 1.76,7.26 -2.35,14.64 -9.17,16.52 -6.86,1.87 -13.82,-2.49 -15.62,-9.72 -1.76,-7.23 2.34,-14.61 9.2,-16.49" /><g
         id="g500"><g
           clip-path="url(#clipPath506)"
           id="g502"><path
             id="path518"
             style="fill:url(#linearGradient516);fill-opacity:1;fill-rule:nonzero;stroke:none"
             d="m 6850.79,9278.75 c 2.78,-9.61 19.06,-10.73 36.36,-2.55 17.3,8.19 29.07,22.59 26.29,32.19 -2.78,9.61 -19.06,10.74 -36.36,2.55 -17.29,-8.19 -29.06,-22.59 -26.29,-32.19 z m 72.92,44.63 c 0.14,-15.65 31.99,-22.94 71.12,-16.34 39.13,6.62 70.75,24.67 70.6,40.31 -0.14,15.65 -31.98,22.97 -71.12,16.35 -39.13,-6.63 -70.75,-24.68 -70.6,-40.32 v 0" /></g></g><g
         id="g520"><g
           clip-path="url(#clipPath526)"
           id="g522"><path
             id="path534"
             style="fill:url(#linearGradient532);fill-opacity:1;fill-rule:nonzero;stroke:none"
             d="m 7945.11,8677.89 c -240.03,31.09 -415.97,217.33 -393.01,415.98 22.99,198.65 236.22,334.44 476.26,303.35 240.03,-31.13 416,-217.36 393.01,-415.98 -22.97,-198.65 -236.19,-334.47 -476.26,-303.35" /></g></g><g
         id="g536"><g
           clip-path="url(#clipPath542)"
           id="g538"><path
             id="path554"
             style="fill:url(#radialGradient552);fill-opacity:1;fill-rule:nonzero;stroke:none"
             d="m 7948.15,8704.09 c -224.65,29.13 -389.49,202.01 -368.17,386.19 21.29,184.16 220.69,309.86 445.34,280.73 224.65,-29.1 389.48,-202 368.16,-386.15 C 8372.2,8800.7 8172.8,8675 7948.15,8704.09 v 0" /></g></g><g
         id="g556"><g
           clip-path="url(#clipPath562)"
           id="g558"><path
             id="path574"
             style="fill:url(#linearGradient572);fill-opacity:1;fill-rule:nonzero;stroke:none"
             d="m 8238.43,9255.43 c -3.22,-11.1 -22.07,-12.43 -42.12,-2.95 -20.04,9.49 -33.67,26.21 -30.45,37.32 3.24,11.1 22.09,12.43 42.11,2.95 20.05,-9.49 33.69,-26.18 30.46,-37.32 z m -84.46,51.75 c -0.17,-18.14 -37.05,-26.61 -82.4,-18.95 -45.33,7.67 -81.94,28.58 -81.77,46.72 0.17,18.1 37.05,26.58 82.4,18.91 45.33,-7.66 81.94,-28.57 81.77,-46.68" /></g></g><path
         id="path576"
         style="fill:#050301;fill-opacity:1;fill-rule:nonzero;stroke:none"
         d="m 7879.75,9162.13 c -43.65,-5.44 -88.95,24.32 -101.21,66.55 -12.26,42.2 13.16,80.81 56.81,86.28 43.64,5.44 88.94,-24.35 101.2,-66.55 12.27,-42.2 -13.19,-80.84 -56.8,-86.28" /><path
         id="path578"
         style="fill:#ffffff;fill-opacity:1;fill-rule:nonzero;stroke:none"
         d="m 7937.21,9259.95 c -21.71,-4.2 -43.29,5.52 -48.18,21.69 -4.89,16.17 8.76,32.68 30.49,36.85 21.72,4.19 43.27,-5.53 48.18,-21.69 4.89,-16.17 -8.76,-32.66 -30.49,-36.85 z m -48.56,-25.43 c -11.27,-2.17 -22.47,2.87 -24.99,11.25 -2.54,8.39 4.55,16.95 15.8,19.12 11.27,2.17 22.44,-2.86 24.99,-11.25 2.54,-8.39 -4.54,-16.95 -15.8,-19.12" /><path
         id="path580"
         style="fill:none;stroke:#231f20;stroke-width:1.44617999;stroke-linecap:butt;stroke-linejoin:miter;stroke-miterlimit:4;stroke-dasharray:none;stroke-opacity:1"
         d="M 78.0938,104.125 H 0" /><path
         id="path582"
         style="fill:none;stroke:#231f20;stroke-width:1.44617999;stroke-linecap:butt;stroke-linejoin:miter;stroke-miterlimit:4;stroke-dasharray:none;stroke-opacity:1"
         d="M 104.125,78.0938 V 0" /><path
         id="path584"
         style="fill:none;stroke:#231f20;stroke-width:1.44617999;stroke-linecap:butt;stroke-linejoin:miter;stroke-miterlimit:4;stroke-dasharray:none;stroke-opacity:1"
         d="M 78.0938,14565.9 H 0" /><path
         id="path586"
         style="fill:none;stroke:#231f20;stroke-width:1.44617999;stroke-linecap:butt;stroke-linejoin:miter;stroke-miterlimit:4;stroke-dasharray:none;stroke-opacity:1"
         d="m 104.125,14591.9 v 78.1" /><path
         id="path588"
         style="fill:none;stroke:#231f20;stroke-width:1.44617999;stroke-linecap:butt;stroke-linejoin:miter;stroke-miterlimit:4;stroke-dasharray:none;stroke-opacity:1"
         d="m 14591.9,14565.9 h 78.1" /><path
         id="path590"
         style="fill:none;stroke:#231f20;stroke-width:1.44617999;stroke-linecap:butt;stroke-linejoin:miter;stroke-miterlimit:4;stroke-dasharray:none;stroke-opacity:1"
         d="m 14565.9,14591.9 v 78.1" /><path
         id="path592"
         style="fill:none;stroke:#231f20;stroke-width:1.44617999;stroke-linecap:butt;stroke-linejoin:miter;stroke-miterlimit:4;stroke-dasharray:none;stroke-opacity:1"
         d="m 14591.9,104.125 h 78.1" /><path
         id="path594"
         style="fill:none;stroke:#231f20;stroke-width:1.44617999;stroke-linecap:butt;stroke-linejoin:miter;stroke-miterlimit:4;stroke-dasharray:none;stroke-opacity:1"
         d="M 14565.9,78.0938 V 0" /></g></g></svg>